<?xml version="1.0" encoding="UTF-8"?>
<svg width="1e3" height="1e3" version="1.1" viewBox="0 0 1e3 1e3" xmlns="http://www.w3.org/2000/svg">
 <defs>
  <clipPath id="clipPath6785">
   <path d="m1718.9 981.42-7.2921 18.027-168.23-14.443v154.53h390.59v-235.11h-215.2z" fill="none" stroke="#000" stroke-width="1px"/>
  </clipPath>
  <clipPath id="clipPath6785-4-7">
   <path d="m1718.9 981.42-7.2921 18.027-168.23-14.443v154.53h390.59v-235.11h-215.2z" fill="none" stroke="#000" stroke-width="1px"/>
  </clipPath>
  <clipPath id="clipPath6785-4-1-9">
   <path d="m1718.9 981.42-7.2921 18.027-168.23-14.443v154.53h390.59v-235.11h-215.2z" fill="none" stroke="#000" stroke-width="1px"/>
  </clipPath>
  <clipPath id="clipPath6785-4-1-90-1">
   <path d="m1718.9 981.42-7.2921 18.027-168.23-14.443v154.53h390.59v-235.11h-215.2z" fill="none" stroke="#000" stroke-width="1px"/>
  </clipPath>
 </defs>
 <g transform="translate(218.64 191.99)">
  <g>
   <g fill-rule="evenodd">
    <circle cx="281.36" cy="308.01" r="500" fill="#fff"/>
    <circle cx="281.36" cy="308.01" r="463.76" fill="#89a02c" stroke="#000" stroke-dashoffset=".65" stroke-linecap="round" stroke-linejoin="round" stroke-width="3.1718"/>
    <circle cx="281.36" cy="231.89" r="373.1" fill="#abc837"/>
    <path d="m545.88 308.83c19.466 8.8145 30.411 26.495 33.583 50.927-40.725-1.313-44.035-10.637-56.447-29.564" fill="#a06823" stroke="#000" stroke-linecap="round" stroke-linejoin="round" stroke-width="3"/>
   </g>
   <rect transform="rotate(-33.72)" x="-270.9" y="132.19" width="116.74" height="188.88" ry="24.663" fill="#fff" stroke="#000" stroke-dashoffset=".65" stroke-linecap="round" stroke-linejoin="round" stroke-width="3.1718"/>
  </g>
  <g transform="matrix(1.0572 0 0 1.0572 12.517 10.991)">
   <g fill-rule="evenodd">
    <circle transform="rotate(-36.257)" cx="-213.72" cy="189.86" r="43.341" fill="#fff"/>
    <circle transform="rotate(-36.257)" cx="-213.72" cy="189.86" r="40.2" fill="#89a02c" stroke="#000" stroke-dashoffset=".65" stroke-linecap="round" stroke-linejoin="round" stroke-width=".27493"/>
    <circle transform="rotate(-36.257)" cx="-213.72" cy="183.26" r="32.341" fill="#abc837"/>
    <path d="m-41.519 265.99c1.8125-0.38178 3.4839 0.29296 4.9581 1.8381-2.9139 1.996-3.6232 1.5139-5.4611 0.82728" fill="#a06823" stroke="#000" stroke-linecap="round" stroke-linejoin="round" stroke-width=".27493"/>
   </g>
   <g fill="#fff" stroke="#000" stroke-dashoffset=".65" stroke-linecap="round" stroke-linejoin="round" stroke-width=".27493">
    <rect transform="rotate(-69.977)" x="-312.11" y="14.99" width="10.119" height="16.373" ry="2.1378"/>
    <rect transform="rotate(-51.508)" x="-285.47" y="110.02" width="10.119" height="16.373" ry="2.1378"/>
    <rect transform="rotate(-31.543)" x="-223.57" y="197.27" width="10.119" height="16.373" ry="2.1378"/>
   </g>
   <path transform="matrix(.068004 -.090077 .090077 .068004 -278.39 376.75)" d="m1672.6 983.54c-7.251 2.131-1.4397 10.357 5.8731 9.2362 16.025-1.1353 25.651-1.3492 41.84 7.6044-15.927 4.3581-33.976 4.4932-48.037 4.1895-3.5365-2.4327-7.1047-2.2954-10.652-0.4122-13.436-0.7195-26.713-2.1951-36.725-4.4492-9.3363-2.102-9.5916 8.5072-4.4102 10.133 9.0809 2.8491 24.762 4.0254 40.881 4.3887 3.5538 1.5706 7.1304 2.3874 10.668 0.1309 16.369 0 31.279-0.218 46.779-1.7266-4.5903 5.7467-38.374 10.24-44.449 9.1817-4.4941-2.8455-7.6804-3.232-14.106-0.129-12.842-0.064-26.223-2.7368-35.936-4.0351-8.5158-1.1383-11.332 8.2406-0.3281 10.57 6.7829 1.4361 20.587 3.5171 35.914 2.8906 4.1753 3.459 9.9193 3.6345 15.203-0.01 8.1987 0.6862 38.413-0.5067 55.996-10.703 11.075 10.408 21.741 27.359 35.39 35.766 16.776 10.332 31.414 13.524 46.185 13.544l-3.5263-34.015c-5.6975-2.8596-12.849-12.364-25.854-17.1-10.122-3.6863-19.554-0.1707-34.157-8.1011-10.917-5.9286-14.235-19.483-23.504-23.161-24.86-9.772-36.312-7.7796-53.046-3.7976z" clip-path="url(#clipPath6785-4-1-90-1)" fill="#c45a0b" fill-rule="evenodd" stroke="#000" stroke-linecap="round" stroke-linejoin="round" stroke-width="2.436"/>
   <g fill="#a06823" fill-rule="evenodd" stroke="#000" stroke-linecap="round" stroke-linejoin="round" stroke-width=".27493">
    <path d="m-62.865 279.36c-2.876 3.5417-2.2952 5.7858 2.2291 8.6608 4.1565-1.2002 6.0818-4.3521 4.943-7.2271"/>
    <path d="m-88.283 266.29c-3.1773 2.3543-6.0448 6.4929-4.8167 10.656l3.3184 1.9953c3.2049 0.95249 6.8317-1.2187 9.806-2.9765 5.1098 6.9955 7.6352 3.8951 11.944 5.4344 4.4941 2.5665 9.6725 1.4306 15.769-1.3636 6.088-5.9628 8.791-14.598 2.7259-24.215-5.8091-2.1642-12.784-2.0279-18.295 0.72142-2.8444 1.419-5.1597 3.7937-6.7614 6.1867-1.2521 1.8706-3.4429 3.2457-5.6097 2.3384-1.0976-0.45956-2.3772-0.8392-3.645-0.74472-1.2584 0.0938-2.8839 0.81803-4.4356 1.9678z"/>
    <path d="m-40.137 268.5c6.556-0.48751 11.959-1.5882 17.184-0.29032-5.7916 1.6727-12.66 3.2588-18.182 2.5621"/>
   </g>
   <path d="m-89.46 278.89c2.8878 0.69908 7.2055-1.5599 8.9847-3.1267 1.497-1.3182 1.0928-3.9992-0.1448-4.4192-1.9115-0.64858-4.3234 0.90096-5.2879 1.8419-1.335 1.3024-0.922 2.6058-4.8395 4.0968z" fill="#c4aa97" fill-rule="evenodd"/>
   <path d="m-93.25 276.08c-2.4745 7.4537-4.2421 8.2276-3.2486 10 1.8092-0.36852 2.7186-3.1158 8.6515-7.9287-1.4725-0.13984-1.0148-1.022-0.74645-2.0274-1.7383 0.62484-3.008 1.5574-4.6564-0.044z" fill="#c45a0b" fill-rule="evenodd" stroke="#000" stroke-linecap="round" stroke-linejoin="round" stroke-width=".27493"/>
   <path d="m-96.404 285.9c2.4449-5.251 5.085-4.9582 7.6122-9.5169" fill="none" stroke="#000" stroke-linecap="round" stroke-linejoin="round" stroke-width=".27493"/>
   <path d="m-93.653 280.18c-0.40545-0.30078 1.0096-1.3415 1.3208-1.3122 0.25305 0.0239-0.91483 1.6134-1.3208 1.3122z" fill-rule="evenodd"/>
   <path d="m-89.86 273.61c-0.16959-1.471 0.66958-2.5732 2.4966-2.2716 0.72443 2.3085-1.0552 2.9136-2.4966 2.2716z" fill="none" stroke="#fff" stroke-linecap="round" stroke-linejoin="round" stroke-width=".36658"/>
   <g>
    <g fill-rule="evenodd">
     <path d="m-91.915 275.15c-0.08011-1.5594-0.22339-4.8196 3.9067-6.3178 1.123-0.59204 1.4371-1.4984 1.5448-2.006 1.2841 0.23178 2.5309 0.0285 4.2613-1.0412 0 0-0.96059 2.525-1.9495 3.0656-0.46465 0.25402-1.4984 0.1349-1.4984 0.1349-0.48689 0.58082-0.38989 1.2038-1.6689 1.2771-3.708 0.21246-3.4851 3.7849-3.6226 4.7048-0.04744 0.31757-0.95626 0.51786-0.97348 0.18263z" fill="#c4aa97"/>
     <g stroke="#000" stroke-linecap="round" stroke-linejoin="round" stroke-width=".27493">
      <path d="m-43.808 270.21c1.8125-0.38178 3.8667 0.22758 5.6452 1.248-3.0046 1.5146-4.1468 3.1037-6.811 2.3342" fill="#a06823"/>
      <path d="m-47.342 272.2c3.1448-0.28271 5.5979-1.0638 8.5627-2.2971-2.205-2.8775-4.5701-3.3432-6.9907-2.9728" fill="#c45a0b"/>
      <path d="m-49.51 274.36c1.753 0.27206 6.5496-1.0062 8.2575-2.4635-0.63755-0.60504-4.5506-2.0772-5.3589-2.2886" fill="#c45a0b"/>
      <path d="m-43.966 261.44c1.8125-0.38179 4.8451 0.97441 6.6237 1.9948-3.2772 1.0254-4.0834 1.0759-6.7476 0.3064" fill="#a06823"/>
      <path d="m-48.508 262.94c1.9241-0.14098 6.4065-0.45093 8.5831-1.2164-2.9878-2.6025-8.1183-4.2733-10.795-4.4712" fill="#c45a0b"/>
      <path d="m-89.687 273.47c-0.14696-1.2747 0.58024-2.2298 2.1635-1.9685 0.62779 2.0005-0.91436 2.5248-2.1635 1.9685z" fill="#8a1300"/>
     </g>
    </g>
    <circle transform="rotate(-23.579)" cx="-190.3" cy="214.52" r=".42273"/>
    <circle transform="rotate(-23.579)" cx="-189.84" cy="214.07" r=".33866" fill="#fff"/>
    <g fill-rule="evenodd" stroke="#000" stroke-linecap="round" stroke-linejoin="round" stroke-width=".27493">
     <path d="m-77.627 298.78c0.18354 0.0369 0.46189 0.15642 0.40333 0.49739-0.45276 0.83548-1.1778 0.93235-1.8108 0.56912 0.57544-0.30628 1.0603-0.49126 1.4074-1.0665z" fill="#666"/>
     <path d="m-75.982 300c0.18447 0.0319 0.46597 0.1438 0.4167 0.48624-0.42988 0.84748-1.152 0.96402-1.7946 0.61814 0.56691-0.32181 1.0466-0.51991 1.3779-1.1044z" fill="#666"/>
     <path d="m-48.448 276.43c1.9247-0.17278 3.9216 0.29622 5.6382-1.7242-1.516-1.7084-3.5241-2.3494-5.713-2.5985" fill="#c45a0b"/>
     <path d="m-49.712 280.57c-0.0055 2.2147 0.1088 3.0647 1.1379 4.8516 0.4968 0.86258 2.9963 2.7516 3.7672 3.7673-1.4537-0.16367-3.6831 0.24007-4.6965 0.63704-0.37405-0.20366-0.78996-0.0738-1.0276 0.27578-0.80089 0.24964-1.8599 0.85441-2.3782 1.1408-0.98067 0.54175-0.59132 1.5576 0.40491 1.0859 0.54209-0.25667 1.5978-0.94268 2.3377-1.1672 0.33045 0.13158 0.72994 0.0951 0.95408-0.29197 0.7545-0.34682 2.6141-0.82207 3.4189-0.68698-0.84999 0.3328-2.5683 1.0444-3.3266 1.6923-0.44844-0.02-0.83347 0.34757-0.91639 0.73088-0.95177 0.5556-2.5095 2.078-3.0067 2.7126-0.49809 0.63565 0.2705 1.2583 0.79494 0.76467 0.88954-0.83736 1.9442-2.0369 2.8389-2.5949 0.42486 6e-3 0.80934-0.29809 0.89611-0.71081 0.99358-0.74327 1.5596-1.0635 3.22-1.7872-1.181 1.0005-1.9504 1.6911-2.5532 2.2733-0.40724-0.0445-0.97096 0.39797-0.948 0.90815-0.96068 0.77455-1.9291 1.7922-2.5941 2.5322-0.63815 0.71008 0.06118 1.5677 0.82051 0.77656 0.63438-0.66094 1.5006-1.6815 2.4409-2.5458 0.51562 0.0323 0.97634-0.4186 0.9731-0.89766 0.54113-0.66098 2.5291-2.4088 4.2403-3.6378 1.0691-0.76783 4.8099-2.7241 5.8677-2.9438 0.5628-0.11686 0.58797-1.3146-0.1105-1.3632-1.4278-0.0994-4.047 1.7628-5.3141 2.324-0.93979-0.61191-0.42507-3.8529-1.0862-5.1281-1.0192-1.9658-2.0412-2.9058-3.6156-4.2949z" fill="#c45a0b"/>
    </g>
   </g>
   <g fill="#666" fill-rule="evenodd" stroke="#000" stroke-linecap="round" stroke-linejoin="round" stroke-width=".27493">
    <path d="m-37.622 286.12c-0.17819 0.33099-0.07509 0.66551 0.12658 0.85764 0.68574-0.39276 1.0883-0.82756 1.7649-0.17329 0.0068-0.81235-0.60152-1.512-1.8915-0.68435z"/>
    <path d="m-51.034 297.25c-0.04902-0.18067-0.18676-0.45048-0.52308-0.36939-0.80357 0.50728-0.85204 1.2371-0.44756 1.8446 0.26738-0.59453 0.41974-1.0906 0.97064-1.4752z"/>
    <path d="m-52.491 295.68c-0.03521-0.18387-0.15217-0.4633-0.49365-0.40788-0.83961 0.44509-0.94312 1.1692-0.58571 1.8055 0.31155-0.57262 0.50097-1.0558 1.0794-1.3976z"/>
    <path d="m-52.772 291.9c1.3e-5 -0.1872-0.06227-0.48365-0.40808-0.49349-0.90838 0.27913-1.1463 0.97079-0.91503 1.663 0.41374-0.50374 0.69071-0.9426 1.3231-1.1695z"/>
   </g>
   <g fill-rule="evenodd">
    <path d="m-71.091 270.18c0.89636-1.734 1.7931-3.0735 3.2098-4.4709-1.5656 0.56099-3.7381 1.721-4.8755 4.5929 0.65765-0.84881 1.7159-2.0483 2.3025-2.3504-0.32148 0.49839-0.74189 1.769-0.63673 2.2284z"/>
    <path d="m-73.753 268.33c0.34908-1.9205 0.81415-3.464 1.7593-5.215-1.3326 0.99498-3.0701 2.7405-3.3163 5.8196 0.38016-1.0042 1.0407-2.4611 1.513-2.9218-0.1614 0.57072-0.19114 1.9088 0.04395 2.3172z"/>
    <path d="m-69.097 264.95c1.3226-1.4356 2.5414-2.4906 4.2769-3.464-1.6582 0.12744-4.06 0.67229-5.9157 3.1416 0.85854-0.64492 2.1961-1.5222 2.8416-1.6586-0.44173 0.39575-1.1829 1.5102-1.2028 1.981z"/>
    <path d="m-64.585 259.54c1.6625-1.023 3.1218-1.7077 5.0563-2.1738-1.6305-0.32721-4.0901-0.45441-6.5461 1.4189 1.0013-0.3878 2.5267-0.8693 3.185-0.82546-0.53254 0.26108-1.5482 1.1326-1.6952 1.5804z"/>
    <path d="m-61.341 261.32c1.894-0.47267 3.492-0.68435 5.4768-0.54402-1.4554-0.80469-3.7616-1.6693-6.6688-0.62589 1.0717-0.067 2.6713-0.065 3.2856 0.17575-0.58655 0.0879-1.8182 0.61174-2.0936 0.99416z"/>
    <path d="m-58.051 257.63c1.952 5e-3 3.5533 0.18983 5.4437 0.81102-1.2146-1.136-3.2395-2.538-6.3136-2.2368 1.0556 0.19691 2.6061 0.58982 3.143 0.97341-0.59025-0.0581-1.9126 0.14884-2.2731 0.45236z"/>
    <path d="m-70.344 261.87c1.1496-1.5776 2.2397-2.7651 3.8524-3.9308-1.6327 0.31638-3.9564 1.1325-5.5173 3.798 0.77908-0.73893 2.0075-1.7635 2.6331-1.9729-0.39354 0.44371-1.0023 1.6356-0.96821 2.1057z"/>
   </g>
   <g fill-rule="evenodd" stroke="#000" stroke-linecap="round" stroke-linejoin="round" stroke-width=".27493">
    <path d="m-41.616 263.43c6.42 1.4151 11.912 1.912 16.544 4.655-6.028-0.0603-10.297-0.0636-15.525-2.7088" fill="#a06823"/>
    <path d="m-41.949 263.38c6.0852 2.4878 13.071 4.7641 17.168 8.2558-5.9297-1.086-11.791-2.2466-16.493-5.7436" fill="#a06823"/>
    <path d="m-46.415 269.15c2.2666-1.0362 6.1363-1.8303 8.587-1.8477-2.857-2.0466-5.0512-3.9767-8.2845-3.7709" fill="#c45a0b"/>
    <path d="m-47.869 266.15c2.6198-0.94178 6.3272-1.6956 9.1336-1.6041-2.715-1.6327-5.727-3.2119-8.0904-2.8979" fill="#c45a0b"/>
   </g>
   <g fill="#a06823" fill-rule="evenodd" stroke="#000" stroke-linecap="round" stroke-linejoin="round" stroke-width=".27493">
    <path d="m-48.76 266.47c1.8519-0.0379 5.2627 3.2057 6.2368 4.0015-2.425 1.7776-5.1185 1.561-7.593 0.3092"/>
    <path d="m-48.335 263.08c1.8518-0.0379 4.88 2.1203 5.8541 2.916-2.425 1.7776-4.7359 2.6464-7.2103 1.3946"/>
    <path d="m-49.642 259.26c1.8125-0.38178 6.6382 1.4259 7.7433 2.0265-2.0519 2.1978-5.6096 3.2308-8.2738 2.4612"/>
    <path d="m-50.879 255.37c3.136 0.81737 6.1067 2.2033 7.0221 3.027-1.9302 2.3054-4.7012 2.1457-7.4031 1.5212"/>
    <path d="m-54.871 278.68c1.926 4.7201 5.6435 5.2164 10.39 3.0471 1.0013-2.4651 0.06698-3.6615-2.388-6.4878-0.83185-3.2527-1.4086-5.5956-2.712-7.2532-9.4793-12.055-23.732 4.49-18.712 10.577 3.0203 3.6624 10.241 1.8465 13.422 0.11714z"/>
   </g>
   <path d="m-66.277 278.95c3.7362 2.1058 11.476 0.16407 12.94-4.2004-3.2504 1.3295-4.6173 2.1-7.2544 1.509 10.144-7.5102 0.29282-15.79-6.3106-5.1515-2.0507 3.5379-1.6173 6.3628 0.62471 7.8429z" fill="#c4aa97" fill-rule="evenodd"/>
   <g fill="#7c441b" stroke="#000" stroke-width=".27493">
    <path d="m-62.619 312.33q1.0432 0.42047 1.4039 0.99212 0.36112 0.56582 0.28455 1.5335-0.11671 1.4748-0.9184 2.1648-0.80169 0.68994-2.361 0.62105l-2.8666-0.12664q-0.17586-8e-3 -0.16156-0.18847l0.02768-0.34976q0.01153-0.14573 0.17535-0.20869 0.3466-0.14263 0.37058-0.44575l0.55678-7.0359q0.01153-0.14573-0.03121-0.20026-0.04275-0.0545-0.26847-0.17565-0.11309-0.0576-0.13146-0.1228-0.01251-0.0649 0.0073-0.31556 0.01753-0.22151 0.08215-0.2947 0.07048-0.0729 0.2229-0.0662l3.2124 0.14191q1.1607 0.0513 1.7355 0.66749 0.57479 0.6162 0.50283 1.5256-0.05997 0.75781-0.59298 1.249-0.52715 0.49148-1.2503 0.63502zm-1.2679-3.4546-0.24218 3.0604 0.31069 0.0137q0.29311 0.0129 0.47062-0.14885 0.18338-0.16154 0.23774-0.55106 0.06068-0.3951 0.10819-0.99551 0.06643-0.83942-0.07834-1.0915-0.13844-0.25765-0.49603-0.27345zm-0.29477 3.7249-0.34459 4.3545q0.53932 0.0238 0.73257-0.11388 0.19912-0.13745 0.26257-0.56751 0.06931-0.42982 0.1505-1.4558 0.01661-0.20985 0.0576-0.95095 0.04146-0.74692 6.94e-4 -0.90081-0.04077-0.1539-0.16868-0.24729-0.12205-0.0931-0.37998-0.10453z"/>
    <path d="m-60.202 308.5 2.5354-0.33451q0.12882-0.017 0.16978 0.0362 0.04037 0.0474 0.0689 0.33058 0.02853 0.28319-0.13197 0.39807-0.12184 0.0863-0.16111 0.16766-0.03342 0.0805-0.01188 0.29438l0.65205 6.473q0.02678 0.26585 0.19591 0.41337 0.16854 0.14174 0.40276 0.11084 0.21665-0.0286 0.35027-0.23362 0.13361-0.20503 0.11091-0.43043l-0.65205-6.473q-0.01688-0.16761-0.05842-0.22654-0.03626-0.0655-0.17498-0.14675-0.21422-0.124-0.24566-0.43609-0.02445-0.24274 0.02359-0.29593 0.05331-0.0597 0.15871-0.0736l1.2648-0.16687q0.2108-0.0278 0.23176 0.18025l0.02795 0.27742q0.01863 0.18494 4.47e-4 0.24005-0.01876 0.0493-0.12594 0.10446-0.26589 0.12878-0.23737 0.41198l0.63517 6.3054q0.09024 0.89581-0.37792 1.4905-0.46874 0.58891-1.3998 0.71175-1.0423 0.13751-1.6486-0.3447-0.60045-0.48298-0.70583-1.5291l-0.61363-6.0916q-0.02445-0.24274-0.29374-0.32434-0.13464-0.0408-0.16858-0.0832-0.02866-0.0489-0.04496-0.21075-0.03377-0.33521-0.0015-0.42731 0.03226-0.0921 0.22549-0.11759z"/>
    <path d="m-51.074 311.53 0.89003 3.3933q0.06892 0.26275 0.42473 0.26288 0.17717-3e-3 0.23324 0.0473 0.0603 0.0428 0.11309 0.24406 0.08211 0.31306 0.04543 0.38368-0.03098 0.069-0.21924 0.12299l-2.6072 0.74772q-0.21679 0.0622-0.30724-2e-3 -0.08622-0.0714-0.1566-0.33978-0.04692-0.17888-0.03013-0.23179 0.02103-0.0601 0.15747-0.17139 0.18762-0.14998 0.22284-0.2262 0.03375-0.0818 2.5e-5 -0.21038l-1.7713-6.753q-0.03812-0.14534-0.12141-0.20561-0.07758-0.0619-0.29924-0.0885-0.15875-0.0206-0.21447-0.23302-0.0059-0.0224-0.05881-0.24761-0.02735-0.2446 0.21226-0.31332l3.5599-1.021q0.15974-0.0458 0.23569-0.0135 0.07595 0.0323 0.1615 0.21816 0.0145 0.0319 0.04204 0.0901l0.58224 1.1674q0.05361 0.11085 0.07561 0.1947 0.04692 0.17889-0.22692 0.25743-0.36512 0.10471-0.49159-3e-3 -0.12647-0.10799-0.45974-0.58343-0.20485-0.28988-0.35398-0.36733-0.14342-0.0791-0.38874-9e-3 -0.06846 0.0196-0.24662 0.0888l0.83724 3.192 0.29095-0.0834q0.2282-0.0655 0.28738-0.19062 0.06342-0.13239 0.03737-0.3954-0.02344-0.29983 0.0017-0.39119 0.02365-0.0969 0.35453-0.19184 0.2282-0.0654 0.28557-0.0338 0.06308 0.03 0.0968 0.15857l0.53079 2.0237q0.03372 0.12858-0.0017 0.1808-0.03538 0.0522-0.28069 0.12257-0.29666 0.0851-0.40146 0.0129-0.09909-0.0738-0.2358-0.43126-0.14388-0.36146-0.5147-0.25511z"/>
    <path d="m-45.681 309.47 1.493 3.1624q0.1156 0.24487 0.46772 0.1821 0.17483-0.034 0.23934 5e-3 0.0674 0.0312 0.15595 0.21878 0.13774 0.29176 0.11418 0.36734-0.01821 0.073-0.19476 0.15908l-2.445 1.1924q-0.2033 0.0991-0.3044 0.0523-0.0982-0.0547-0.21626-0.30474-0.07871-0.16671-0.07164-0.22144 0.01-0.0625 0.1249-0.19552 0.1586-0.1799 0.17969-0.26069 0.01863-0.086-0.03794-0.20583l-2.9712-6.2936q-0.06395-0.13546-0.15724-0.1797-0.08794-0.0468-0.31208-0.0337-0.16081 8e-3 -0.25427-0.19006-0.0098-0.0208-0.10287-0.23185-0.0712-0.23447 0.1535-0.34406l3.3384-1.6282q0.1498-0.0731 0.23079-0.0549 0.08099 0.0182 0.19917 0.18488 0.0201 0.0286 0.05784 0.0807l0.7868 1.0392q0.07305 0.099 0.10995 0.17712 0.07871 0.16672-0.17809 0.29196-0.3424 0.16699-0.48704 0.0837-0.14463-0.0833-0.5602-0.48952-0.25501-0.24738-0.41655-0.29679-0.1562-0.052-0.38625 0.0602-0.0642 0.0313-0.22802 0.13043l1.4044 2.9749 0.27285-0.13307q0.214-0.10437 0.24998-0.23729 0.03887-0.14074-0.03436-0.39345-0.07729-0.28919-0.06893-0.38301 0.0059-0.099 0.31621-0.25036 0.214-0.10437 0.27648-0.0836 0.06783 0.0182 0.1244 0.13802l0.89039 1.886q0.05657 0.11983 0.03099 0.17717-0.02558 0.0573-0.25564 0.16954-0.2782 0.13569-0.39492 0.0837-0.11136-0.0547-0.31115-0.38025-0.2076-0.32819-0.55535-0.15859z"/>
    <path d="m-39.071 302.5-1.2149-0.92155q-0.17047-0.13331-0.44897-0.14653-0.18307-6e-3 -0.26084-0.0909l-0.27218-0.29735q-0.11665-0.12744 0.01191-0.24274l1.8176-1.6301q0.08866-0.0795 0.14971-0.0569 0.06548 0.0186 0.20158 0.1673 0.20608 0.22514 0.22226 0.29572 0.01672 0.0624-0.02917 0.1886-0.07078 0.18725-0.0086 0.25521 0.08166 0.0892 0.27654 0.23156l2.9939 2.2654-2.0427-3.281q-0.03443-0.0465-0.07723-0.0932-0.17886-0.1954-0.49828-0.0946-0.16192 0.0524-0.3841-0.1815-0.05833-0.0637-0.08609-0.0852l-0.035-0.0382q-0.09332-0.10195 0.06627-0.24509l1.0196-0.91446q0.1064-0.0954 0.17242-0.085 0.06214 6e-3 0.17101 0.1251 0.035 0.0382 0.06555 0.0804l0.13834 0.17759q0.0717 0.11361 0.01756 0.30139-0.05414 0.18779 0.0776 0.40226l4.0643 6.5654q0.24123 0.387 0.25965 0.4865 0.01843 0.0995-0.08797 0.19492l-0.74477 0.66796q-0.1197 0.10735-0.37236-0.10694-0.04721-0.0428-0.07497-0.0643l-3.3043-2.4898 2.2294 3.5467q0.13617 0.21049 0.1357 0.28053 0.0034 0.0743-0.07638 0.14585l-0.7758 0.69579q-0.133 0.11928-0.59891-0.27506-0.08275-0.0727-0.1305-0.10728l-6.0911-4.5465q-0.19489-0.14236-0.4195-0.0879-0.18245 0.0476-0.29522-0.0756l-0.2994-0.32708q-0.08943-0.0977 0.0347-0.20903l1.7555-1.5745q0.08866-0.0795 0.1669-0.0646 0.07435 0.0107 0.22211 0.17209 0.1672 0.18266 0.19667 0.24131 0.02947 0.0587 0.01298 0.18174-0.01478 0.16023 0.06298 0.24519 0.08943 0.0977 0.24824 0.21827l3.1954 2.3708z"/>
    <path d="m-35.048 295.23 2.7165 1.8777 0.23731-0.3261q0.09772-0.13428 0.086-0.23608t-0.1776-0.26691q-0.2959-0.29103-0.33808-0.37064-0.03869-0.0844 0.01715-0.16113 0.2757-0.37885 0.3439-0.40379 0.06693-0.033 0.27626 0.11168l1.5842 1.0951q0.14748 0.10194 0.16016 0.18278 0.0079 0.0776-0.17356 0.32693-0.11866 0.16304-0.21763 0.18113-0.10024 0.01-0.41456-0.12798-0.29054-0.12154-0.38601-0.10825-0.09199 8e-3 -0.16877 0.11399l-0.27221 0.37406 3.2779 2.2658 0.18496-0.25417q0.171-0.23498 0.10537-0.41009-0.0669-0.18319-0.54704-0.8106-0.20232-0.26241-0.22039-0.40462-0.01806-0.14223 0.13899-0.35803 0.21637-0.29732 0.40667-0.16578 0.05709 0.0395 0.15255 0.13428l0.95082 0.92393q0.26006 0.25184 0.29748 0.32816 0.03615 0.0682-0.08251 0.23128l-2.3278 3.1986q-0.08725 0.11989-0.16401 0.11729-0.08152-6e-3 -0.34318-0.18676-0.16651-0.1151-0.11699-0.34036 0.08252-0.33939-0.10778-0.47093l-5.9326-4.1008q-0.09388-0.0577-0.33783 0.0908-0.16654 0.10112-0.24458 0.0904-0.07454-0.0155-0.29338-0.16676-0.18554-0.12825-0.1979-0.18004-0.01712-0.0551 0.08409-0.19415l2.2266-3.0596q0.08376-0.11509 0.16021-0.14154 0.07645-0.0264 0.24011 0.0434l1.4054 0.60386q0.10911 0.0466 0.14241 0.0696 0.12845 0.0888-0.03906 0.31898-0.18846 0.25896-0.30836 0.30582-0.12467 0.0436-0.42187-0.0393-0.53636-0.14731-0.78314-0.15211-0.24329-0.01-0.34101 0.12468z"/>
    <path d="m-30.176 289.89 5.7663 0.70077q0.29517 0.0375 0.48093-0.12232 0.12224-0.10296 0.3485-0.0108 0.02694 0.011 0.31603 0.14786 0.12209 0.0688 0.02849 0.27895l-0.95516 2.1443q-0.0528 0.11852-0.11269 0.13868-0.0599 0.0202-0.25383-0.0589-0.03232-0.0132-0.27533-0.12491-0.08977-0.0557-0.08247-0.18637 0.01754-0.19655-0.12253-0.25361-0.03771-0.0154-0.09638-0.0265l-3.0511-0.35198 0.32244 0.3478 2.198 0.89553q0.27474 0.11194 0.52819-0.0712 0.10486-0.0782 0.31496 7e-3 0.24781 0.10097 0.3148 0.17919 0.06161 0.076-0.01279 0.24304l-1.0056 2.2574q-0.0552 0.12391-0.12528 0.15265-0.07547 0.0265-0.31251-0.07-0.23704-0.0966-0.27949-0.15843-0.04787-0.064-0.04833-0.19156 8e-3 -0.23227-0.20211-0.31787l-6.47-2.6361q-0.24242-0.0988-0.44734 0.0469-0.1384 0.0964-0.19889 0.10356-0.06587 5e-3 -0.22748-0.0609-0.36633-0.14926-0.4082-0.19814-0.04726-0.0511 0.01034-0.18039l1.0944-2.4567q0.0768-0.1724 0.21686-0.11534 0.43636 0.17779 0.49919 0.22249 0.05745 0.0425 0.07585 0.2155 0.01948 0.31348 0.22958 0.39908l2.7636 1.126-2.1435-2.261q-0.17768-0.18697-0.29081-0.23307-0.07003-0.0285-0.2246 0.0613-0.15937 0.10057-0.2438 0.10437-0.08203-2e-3 -0.36755-0.11793-0.2101-0.0856-0.1405-0.24185l0.63598-1.4277q0.0552-0.12391 0.11568-0.1311 0.06048-7e-3 0.29213 0.0872 0.24781 0.10097 0.28488 0.16063 0.03947 0.0543 0.0333 0.26818-0.0085 0.16203 7e-3 0.21291 0.01552 0.0509 0.09926 0.14866z"/>
    <path d="m-24.168 286.51-0.34746 1.4228 0.51231 0.17204q0.0172 4e-3 0.04883 0.0221 0.15519 0.08 0.28708 0.10738 0.20645 0.0428 0.41514-0.19494 0.1093-0.12682 0.1979-0.14435 0.08862-0.0175 0.27214 0.0206 0.23512 0.0488 0.27979 0.0879 0.04032 0.0323 0.01669 0.12904l-0.36691 1.5025q-0.03058 0.12521-0.29437 0.0705-0.31541-0.0654-0.46175-0.30506-0.13191-0.22469-0.32568-0.29478l-6.4926-2.4529q-0.14789-0.0606-0.26258-0.0844-0.17778-0.0369-0.37517 0.17931-0.09661 0.0996-0.33174 0.0508-0.31541-0.0654-0.38162-0.11503-0.06621-0.0496-0.03008-0.19758l0.53091-2.1741q0.04864-0.1992 0.25735-0.23962 0.2087-0.0404 0.86471 0.0119 0.25493 0.017 0.50413 0.0328l6.5304 0.37386q0.47545 0.0269 0.78163-0.19068 0.08115-0.0609 0.12686-0.0753 0.03997-0.0156 0.22921 0.0236 0.29247 0.0607 0.35156 0.11477 0.05335 0.0529 0.02139 0.18383l-0.61847 2.5326q-0.0278 0.11383-0.24572 0.0686-0.27526-0.0571-0.33713-0.0998-0.06187-0.0427-0.12027-0.19835-0.07752-0.22537-0.2725-0.26581-0.20072-0.0416-0.96394-0.0744zm-5.2821-0.37805 4.3016 1.556 0.30576-1.2521z"/>
   </g>
   <path d="m-68.954 317.69a36.551 39.442 55.621 0 0 47.3-29.548 36.551 39.442 55.621 0 0-27.091-44.033 36.551 39.442 55.621 0 0-47.3 29.548 36.551 39.442 55.621 0 0 27.091 44.033z" fill="none"/>
   <g stroke-width=".091645">
    <text transform="rotate(-36.257)" x="-188.5213" y="208.93469" font-family="sans-serif" font-size="1.4663px" letter-spacing="0px" word-spacing="-.00091645px" style="line-height:1.25" xml:space="preserve"><tspan x="-188.5213" y="208.93469" stroke-width=".091645"/></text>
    <path d="m-28.788 279.84 0.02925 0.3609q-0.31452 0.0668-0.35533 0.33218-0.03134 0.2038 0.1078 0.34473 0.13947 0.1388 0.40059 0.17895 0.20593 0.0317 0.35567 5e-3 0.14762-0.0273 0.23417-0.10959 0.08475-0.0848 0.10499-0.21638 0.04505-0.29297-0.30377-0.45528l0.16965-0.32596q0.52585 0.25472 0.4364 0.83641-0.03199 0.20805-0.16165 0.37284-0.12933 0.16265-0.35403 0.23893-0.2247 0.0763-0.51342 0.0319-0.26962-0.0415-0.45595-0.17226-0.18846-0.13112-0.27257-0.33312-0.08379-0.20412-0.04526-0.45463 0.08097-0.5265 0.62346-0.63431zm-1.3534 0.54813q0.05126-0.33331 0.22189-0.60914 0.16884-0.27828 0.4306-0.46838 0.25997-0.19255 0.57612-0.26997 0.31435-0.0799 0.64766-0.0286 0.43733 0.0673 0.77914 0.34583 0.34001 0.27613 0.50122 0.6834 0.15908 0.40694 0.0915 0.8464-0.06856 0.44582-0.34256 0.78616-0.27368 0.33821-0.68094 0.49942-0.40907 0.15875-0.84852 0.0912-0.44158-0.0679-0.78192-0.34191-0.34214-0.27645-0.50122-0.6834-0.16088-0.40939-0.09297-0.85096zm0.31844 0.049q-0.05518 0.35878 0.075 0.68521 0.1305 0.32432 0.40486 0.54688 0.27257 0.22012 0.6271 0.27464 0.35666 0.0549 0.68277-0.0732 0.32431-0.13049 0.54655-0.40273 0.22012-0.27257 0.27496-0.62923 0.05452-0.35453-0.0732-0.68276-0.12772-0.32824-0.39816-0.54803-0.27224-0.22224-0.63102-0.27741-0.35241-0.0542-0.68097 0.0756-0.32856 0.12984-0.55113 0.4042-0.22224 0.27224-0.27676 0.62678z"/>
    <text transform="rotate(-36.257)" x="-185.84708" y="210.25983" fill="#000000" font-family="Calibri" font-size="1.346px" font-weight="400" letter-spacing="0px" word-spacing="0px" style="line-height:125%" xml:space="preserve"><tspan x="-185.84708" y="210.25983" stroke-width=".091645"><tspan dx="0" dy="0" fill="#000000" font-family="Calibri" font-size="1.346px" font-weight="400" stroke-width=".091645"> </tspan></tspan></text>
   </g>
  </g>
  <rect transform="rotate(-15.251)" x="-147.97" y="175.84" width="116.74" height="188.88" ry="24.663" fill="#fff" stroke="#000" stroke-dashoffset=".65" stroke-linecap="round" stroke-linejoin="round" stroke-width="3.1718"/>
  <g transform="matrix(1.0572 0 0 1.0572 12.517 10.991)">
   <g fill-rule="evenodd">
    <circle transform="rotate(-14.989)" cx="-92.328" cy="242.93" r="43.341" fill="#fff"/>
    <circle transform="rotate(-14.989)" cx="-92.328" cy="242.93" r="40.2" fill="#89a02c" stroke="#000" stroke-dashoffset=".65" stroke-linecap="round" stroke-linejoin="round" stroke-width=".27493"/>
    <circle transform="rotate(-14.989)" cx="-92.328" cy="236.33" r="32.341" fill="#abc837"/>
    <path d="m-4.1898 252.68c1.8275 0.30167 3.1404 1.5367 3.9537 3.5114-3.4394 0.80305-3.9256 0.0965-5.3892-1.21" fill="#a06823" stroke="#000" stroke-linecap="round" stroke-linejoin="round" stroke-width=".27493"/>
   </g>
   <g fill="#fff" stroke="#000" stroke-dashoffset=".65" stroke-linecap="round" stroke-linejoin="round" stroke-width=".27493">
    <rect transform="rotate(-48.709)" x="-240.6" y="126.52" width="10.119" height="16.373" ry="2.1378"/>
    <rect transform="rotate(-30.24)" x="-182.31" y="193.15" width="10.119" height="16.373" ry="2.1378"/>
    <rect transform="rotate(-10.274)" x="-98.234" y="240.18" width="10.119" height="16.373" ry="2.1378"/>
   </g>
   <path transform="matrix(.096047 -.059274 .059274 .096047 -265.1 269.98)" d="m1672.6 983.54c-7.251 2.131-1.4397 10.357 5.8731 9.2362 16.025-1.1353 25.651-1.3492 41.84 7.6044-15.927 4.3581-33.976 4.4932-48.037 4.1895-3.5365-2.4327-7.1047-2.2954-10.652-0.4122-13.436-0.7195-26.713-2.1951-36.725-4.4492-9.3363-2.102-9.5916 8.5072-4.4102 10.133 9.0809 2.8491 24.762 4.0254 40.881 4.3887 3.5538 1.5706 7.1304 2.3874 10.668 0.1309 16.369 0 31.279-0.218 46.779-1.7266-4.5903 5.7467-38.374 10.24-44.449 9.1817-4.4941-2.8455-7.6804-3.232-14.106-0.129-12.842-0.064-26.223-2.7368-35.936-4.0351-8.5158-1.1383-11.332 8.2406-0.3281 10.57 6.7829 1.4361 20.587 3.5171 35.914 2.8906 4.1753 3.459 9.9193 3.6345 15.203-0.01 8.1987 0.6862 38.413-0.5067 55.996-10.703 11.075 10.408 21.741 27.359 35.39 35.766 16.776 10.332 31.414 13.524 46.185 13.544l-3.5263-34.015c-5.6975-2.8596-12.849-12.364-25.854-17.1-10.122-3.6863-19.554-0.1707-34.157-8.1011-10.917-5.9286-14.235-19.483-23.504-23.161-24.86-9.772-36.312-7.7796-53.046-3.7976z" clip-path="url(#clipPath6785-4-1-9)" fill="#c45a0b" fill-rule="evenodd" stroke="#000" stroke-linecap="round" stroke-linejoin="round" stroke-width="2.436"/>
   <g fill="#a06823" fill-rule="evenodd" stroke="#000" stroke-linecap="round" stroke-linejoin="round" stroke-width=".27493">
    <path d="m-28.933 257.4c-3.9648 2.2573-4.2376 4.5592-1.0643 8.8795 4.3088 0.38925 7.2463-1.8496 7.2279-4.9419"/>
    <path d="m-47.88 236c-3.8149 1.0415-7.9883 3.858-8.3539 8.1828l2.3686 3.0631c2.6411 2.0501 6.8085 1.3424 10.218 0.78317 2.2243 8.3726 5.7023 6.3993 9.1589 9.3967 3.2571 4.0218 8.4948 4.8417 15.19 4.4494 7.8363-3.3483 13.487-10.415 11.324-21.577-4.6284-4.124-11.178-6.527-17.311-5.9639-3.1654 0.29064-6.1843 1.6637-8.545 3.3127-1.8454 1.289-4.3857 1.7758-6.0759 0.14433-0.85612-0.82638-1.9109-1.6443-3.1266-2.0162-1.2067-0.36908-2.9842-0.28379-4.8473 0.22484z"/>
    <path d="m-3.8113 255.52c6.2863 1.9238 11.721 2.8581 16.119 5.9627-6.0039-0.54204-12.98-1.5555-17.873-4.2076"/>
   </g>
   <path d="m-53.547 247.32c2.4375 1.699 7.2806 1.16 9.5069 0.34534 1.8732-0.68544 2.469-3.3305 1.4681-4.1707-1.5461-1.2978-4.3558-0.72866-5.5959-0.20162-1.7165 0.72946-1.8044 2.0939-5.9959 2.0623z" fill="#c4aa97" fill-rule="evenodd"/>
   <path d="m-56.058 243.32c-5.0097 6.0485-6.9376 6.1286-6.6548 8.1406 1.8197 0.31284 3.6636-1.9175 10.938-4.2505-1.3214-0.66443-0.57498-1.3206 0.03979-2.1601-1.8465-0.0482-3.3681 0.36017-4.3233-1.73z" fill="#c45a0b" fill-rule="evenodd" stroke="#000" stroke-linecap="round" stroke-linejoin="round" stroke-width=".27493"/>
   <path d="m-62.559 251.33c4.1831-4.0065 6.5372-2.7761 10.546-6.1075" fill="none" stroke="#000" stroke-linecap="round" stroke-linejoin="round" stroke-width=".27493"/>
   <path d="m-57.92 246.99c-0.26874-0.42736 1.4274-0.88396 1.7068-0.74371 0.22716 0.11403-1.4377 1.1716-1.7068 0.74371z" fill-rule="evenodd"/>
   <path d="m-52.001 242.24c0.37555-1.4323 1.5574-2.155 3.1506-1.2113-0.16227 2.414-2.0402 2.3324-3.1506 1.2113z" fill="none" stroke="#fff" stroke-linecap="round" stroke-linejoin="round" stroke-width=".36658"/>
   <g>
    <g fill-rule="evenodd">
     <path d="m-54.479 242.94c0.49101-1.4823 1.5401-4.5724 5.9323-4.4704 1.2613-0.14437 1.8827-0.87504 2.1673-1.3091 1.1125 0.68175 2.3482 0.94457 4.3488 0.57541 0 0-1.8111 2.0046-2.9288 2.1497-0.52515 0.0682-1.4453-0.4178-1.4453-0.4178-0.66441 0.36464-0.80001 0.98042-2.0185 0.58479-3.5325-1.147-4.6207 2.2629-5.0824 3.0703-0.1594 0.27873-1.079 0.13572-0.97343-0.18292z" fill="#c4aa97"/>
     <g stroke="#000" stroke-linecap="round" stroke-linejoin="round" stroke-width=".27493">
      <path d="m-7.8536 255.78c1.8275 0.30167 3.5208 1.6146 4.808 3.2107-3.3493 0.32162-4.9902 1.3882-7.1938-0.29534" fill="#a06823"/>
      <path d="m-11.869 256.35c3.0332 0.87729 5.6025 1.0392 8.8127 0.96534-1.011-3.4813-3.0461-4.7732-5.4362-5.3061" fill="#c45a0b"/>
      <path d="m-14.674 257.58c1.5349 0.8894 6.4685 1.438 8.5887 0.69956-0.37466-0.7951-3.4872-3.5864-4.1637-4.0766" fill="#c45a0b"/>
      <path d="m-4.8187 247.55c1.8275 0.30167 4.1617 2.6656 5.449 4.2616-3.426-0.23316-4.1956-0.47854-6.3992-2.1621" fill="#a06823"/>
      <path d="m-9.5951 247.3c1.8442 0.56656 6.1338 1.9036 8.4397 1.9798-1.8403-3.509-6.0153-6.927-8.4382-8.0825" fill="#c45a0b"/>
      <path d="m-51.793 242.18c0.32544-1.2412 1.3496-1.8675 2.7302-1.0496-0.14061 2.0919-1.7679 2.0212-2.7302 1.0496z" fill="#8a1300"/>
     </g>
    </g>
    <circle transform="rotate(-2.3111)" cx="-60.224" cy="239.66" r=".42273"/>
    <circle transform="rotate(-2.3111)" cx="-59.766" cy="239.2" r=".33866" fill="#fff"/>
    <g fill-rule="evenodd" stroke="#000" stroke-linecap="round" stroke-linejoin="round" stroke-width=".27493">
     <path d="m-49.734 270.14c0.15765 0.10096 0.3737 0.31331 0.19544 0.60981-0.72498 0.61435-1.4357 0.44163-1.8939-0.12647 0.64735-0.0767 1.1663-0.0732 1.6984-0.48334z" fill="#666"/>
     <path d="m-48.644 271.88c0.16034 0.0967 0.38208 0.30304 0.21195 0.60428-0.70801 0.63383-1.4232 0.4805-1.8966-0.0749 0.64503-0.0943 1.1639-0.10488 1.6847-0.52935z" fill="#666"/>
     <path d="m-14.434 259.9c1.8562 0.53712 3.547 1.6985 5.8796 0.43844-0.79304-2.1419-2.4319-3.4677-4.3813-4.4938" fill="#c45a0b"/>
     <path d="m-17.115 263.3c-0.80843 2.0619-1.0103 2.8955-0.69942 4.9339 0.15008 0.98403 1.7942 3.6511 2.1441 4.8772-1.2953-0.67985-3.5194-1.1123-4.6077-1.1099-0.2747-0.32547-0.70938-0.35533-1.0576-0.11574-0.83689-0.0579-2.0432 0.12157-2.6301 0.2004-1.1104 0.14914-1.116 1.237-0.01657 1.1588 0.59827-0.0426 1.8309-0.2989 2.6019-0.23979 0.26022 0.24249 0.64571 0.35345 0.995 0.074 0.82891-0.0495 2.7342 0.18213 3.4352 0.59995-0.91282 2e-3 -2.7722 0.0417-3.7139 0.37035-0.41064-0.18131-0.90278 0.0216-1.1191 0.34869-1.0885 0.17253-3.0923 1.0262-3.7858 1.4372-0.69474 0.41169-0.20437 1.2708 0.46343 1.001 1.1327-0.45766 2.5506-1.1929 3.5868-1.3884 0.39366 0.15992 0.86235 0.0158 1.0929-0.33735 1.1955-0.33224 1.8392-0.42538 3.6489-0.49745-1.4635 0.50394-2.431 0.86848-3.2039 1.1924-0.36338-0.18914-1.0492 0.0187-1.2129 0.50242-1.1762 0.37333-2.4478 0.97038-3.3359 1.4187-0.85226 0.43024-0.51163 1.4831 0.48294 1.0213 0.83092-0.38581 2.0083-1.0227 3.1981-1.487 0.46877 0.21717 1.0617-0.0359 1.2324-0.48355 0.74403-0.41968 3.2306-1.3274 5.2711-1.852 1.2748-0.32773 5.4704-0.79388 6.5359-0.61486 0.56685 0.0952 1.0248-1.0117 0.39149-1.3104-1.2945-0.61056-4.4108 0.17481-5.7951 0.23807-0.65382-0.91113 1.0015-3.7447 0.84792-5.1728-0.23673-2.2016-0.84816-3.4483-1.8115-5.3139z" fill="#c45a0b"/>
    </g>
   </g>
   <g fill="#666" fill-rule="evenodd" stroke="#000" stroke-linecap="round" stroke-linejoin="round" stroke-width=".27493">
    <path d="m-7.8591 272.85c-0.28612 0.24381-0.31138 0.59295-0.19314 0.84514 0.7815-0.11727 1.3143-0.37645 1.7076 0.4787 0.30097-0.75456-0.012083-1.6272-1.5144-1.3238z"/>
    <path d="m-24.396 278.36c0.01985-0.18615-0.01063-0.48754-0.35346-0.53398-0.93285 0.18125-1.2428 0.84379-1.0862 1.5566 0.46482-0.45705 0.78675-0.86407 1.4396-1.0226z"/>
    <path d="m-25.184 276.36c0.03388-0.18412 0.02625-0.48695-0.31207-0.55917-0.94388 0.11023-1.303 0.74744-1.2007 1.4701 0.49804-0.42061 0.84981-0.80214 1.5128-0.9109z"/>
    <path d="m-24.076 272.75c0.06792-0.17445 0.1174-0.4733-0.20128-0.6079-0.94776-0.0694-1.4204 0.48886-1.4559 1.2178 0.56828-0.31936 0.98558-0.62786 1.6572-0.60991z"/>
   </g>
   <g fill-rule="evenodd">
    <path d="m-33.269 245.86c1.4643-1.2908 2.7859-2.2138 4.6129-3.0021-1.6625-0.0451-4.1078 0.24787-6.2094 2.5116 0.92076-0.55245 2.342-1.2864 2.9982-1.3551-0.48037 0.34784-1.3331 1.3795-1.4017 1.8457z"/>
    <path d="m-35.078 243.17c1.022-1.6631 2.0152-2.9327 3.5312-4.2217-1.6027 0.44384-3.855 1.4403-5.2014 4.2203 0.71853-0.79793 1.8625-1.916 2.4698-2.1739-0.35742 0.4733-0.87051 1.7094-0.79956 2.1753z"/>
    <path d="m-29.511 241.7c1.7533-0.85808 3.2718-1.3991 5.2421-1.6767-1.5915-0.48272-4.0274-0.84621-6.6524 0.78182 1.034-0.28957 2.5987-0.6219 3.2497-0.51486-0.5552 0.20856-1.6501 0.97826-1.8395 1.4098z"/>
    <path d="m-23.346 238.31c1.9203-0.35024 3.5286-0.45903 5.5004-0.19169-1.4008-0.89638-3.6467-1.9071-6.615-1.0522 1.0738 2e-3 2.6699 0.10642 3.2675 0.38608-0.59097 0.0501-1.8536 0.49389-2.153 0.85786z"/>
    <path d="m-20.969 241.14c1.9364 0.24653 3.5024 0.62891 5.3012 1.4797-1.0644-1.2778-2.8999-2.92-5.9876-3.0023 1.023 0.32626 2.5129 0.90838 2.998 1.3556-0.5785-0.13083-1.9162-0.0894-2.3116 0.16704z"/>
    <path d="m-16.566 238.9c1.8174 0.71229 3.2424 1.4658 4.7788 2.7304-0.71982-1.4992-2.0982-3.5402-5.0723-4.3746 0.91226 0.56638 2.2147 1.495 2.5758 2.0472-0.52898-0.26823-1.8363-0.55505-2.2823-0.40296z"/>
    <path d="m-29.558 238.39c1.6436-1.0531 3.0901-1.7644 5.0158-2.2657-1.6363-0.29741-4.0978-0.37973-6.5192 1.538 0.99406-0.406 2.5104-0.91523 3.1694-0.8834-0.52768 0.27074-1.5273 1.1607-1.6661 1.611z"/>
   </g>
   <g fill-rule="evenodd" stroke="#000" stroke-linecap="round" stroke-linejoin="round" stroke-width=".27493">
    <path d="m-3.3527 250.26c5.4695 3.6475 10.407 6.1027 13.729 10.339-5.5956-2.2428-9.5723-3.7943-13.485-8.1559" fill="#a06823"/>
    <path d="m-3.6452 250.09c4.7684 4.5256 10.452 9.1807 13.004 13.921-5.1319-3.163-10.173-6.3706-13.286-11.335" fill="#a06823"/>
    <path d="m-9.9012 253.85c2.4881-0.14341 6.3823 0.52024 8.6724 1.3929-1.9201-2.9436-3.2646-5.5381-6.3525-6.5191" fill="#c45a0b"/>
    <path d="m-10.165 250.53c2.783 0.0727 6.5113 0.71493 9.0934 1.8182-1.9379-2.5063-4.1718-5.0705-6.4882-5.6352" fill="#c45a0b"/>
   </g>
   <g fill="#a06823" fill-rule="evenodd" stroke="#000" stroke-linecap="round" stroke-linejoin="round" stroke-width=".27493">
    <path d="m-11.112 250.5c1.7395 0.63644 3.7414 4.8963 4.3606 5.9912-2.9046 0.77693-5.3362-0.40196-7.188-2.4661"/>
    <path d="m-9.4869 247.5c1.7395 0.63645 3.7785 3.746 4.3977 4.8409-2.9046 0.77693-5.3733 0.74833-7.2251-1.3158"/>
    <path d="m-9.3179 243.46c1.8275 0.30167 5.6688 3.7366 6.4809 4.6972-2.7094 1.3038-6.3995 0.97596-8.6031-0.70756"/>
    <path d="m-9.0622 239.39c2.6259 1.8992 4.8915 4.2684 5.4458 5.368-2.635 1.4483-5.1594 0.29423-7.4507-1.2678"/>
    <path d="m-21.237 259.67c0.08266 5.0972 3.367 6.9082 8.5775 6.6086 1.8273-1.934 1.3906-3.3878 0.12802-6.9122 0.40467-3.3329 0.717-5.7254 0.10364-7.743-4.4608-14.673-23.744-4.4241-21.274 3.0688 1.4861 4.5085 8.8736 5.4354 12.465 4.9777z"/>
   </g>
   <path d="m-31.963 255.78c2.7179 3.3177 10.635 4.3156 13.583 0.77956-3.5113 0.0599-5.0646 0.28207-7.3077-1.2252 12.178-3.319 6.0003-14.608-4.0122-7.0897-3.1943 2.553-3.8151 5.3428-2.2627 7.5353z" fill="#c4aa97" fill-rule="evenodd"/>
   <g fill="#7c441b" stroke="#000" stroke-width=".27493">
    <path d="m-40.664 288.21q0.81968 0.77025 0.94842 1.4338 0.13129 0.65828-0.29108 1.5323-0.64372 1.332-1.6411 1.6842-0.99736 0.35214-2.4255-0.27767l-2.6254-1.1578q-0.16107-0.071-0.08219-0.23424l0.15266-0.3159q0.06361-0.13162 0.2391-0.13087 0.37473-7e-3 0.50703-0.28097l3.071-6.3548q0.06361-0.13163 0.04356-0.19795-0.02005-0.0663-0.18647-0.26107-0.08448-0.0947-0.07797-0.16213 0.01188-0.065 0.12129-0.2914 0.09669-0.20007 0.18345-0.24484 0.09213-0.0424 0.23173 0.0192l2.9422 1.2975q1.063 0.46881 1.3752 1.2515 0.31213 0.78274-0.08479 1.6041-0.33077 0.68444-1.0057 0.94887-0.66952 0.26679-1.3955 0.13824zm0.07161-3.6793-1.3358 2.7641 0.28455 0.12549q0.26845 0.11839 0.49256 0.032 0.22948-0.084 0.42143-0.4273 0.19986-0.34618 0.46193-0.88846 0.36639-0.75815 0.32292-1.0456-0.03555-0.29032-0.36306-0.43475zm-1.6258 3.3643-1.9006 3.9329q0.49394 0.21783 0.72399 0.1596 0.23541-0.0559 0.45054-0.43362 0.2205-0.3754 0.6683-1.302 0.0916-0.18953 0.39862-0.86528 0.30957-0.68102 0.3274-0.83921 0.01783-0.1582-0.06749-0.29163-0.07995-0.13107-0.31618-0.23525z"/>
    <path d="m-37.021 285.52 2.4841 0.60796q0.12621 0.0309 0.14509 0.0953 0.02044 0.0588-0.0557 0.33305-0.07614 0.27426-0.26737 0.32309-0.14486 0.0363-0.21096 0.0978-0.06036 0.0629-0.11785 0.27002l-1.7403 6.2687q-0.07148 0.25746 0.03262 0.45628 0.10565 0.19322 0.33513 0.24938 0.21227 0.0519 0.41115-0.0907 0.19888-0.1426 0.25948-0.36088l1.7403-6.2687q0.04506-0.16231 0.02773-0.2323-0.01004-0.0742-0.10983-0.20023-0.15465-0.19326-0.07074-0.4955 0.06526-0.23507 0.12933-0.26721 0.07135-0.0363 0.17462-0.0111l1.2392 0.30327q0.20653 0.0505 0.15059 0.25204l-0.07458 0.26866q-0.04972 0.1791-0.08666 0.22386-0.03538 0.0392-0.15526 0.0517-0.2945 0.0236-0.37064 0.29781l-1.6953 6.1064q-0.24085 0.86754-0.89284 1.2519-0.65043 0.37877-1.5626 0.15553-1.0212-0.24993-1.4113-0.91922-0.38436-0.66789-0.10311-1.681l1.6378-5.8993q0.06526-0.23507-0.15608-0.40879-0.11067-0.0869-0.12693-0.13866-9e-3 -0.056 0.03455-0.2127 0.09012-0.32463 0.15359-0.39876 0.06347-0.0741 0.25278-0.0278z"/>
    <path d="m-29.612 291.65-0.40145 3.485q-0.03108 0.26985 0.30045 0.39904 0.1661 0.0617 0.20019 0.1287 0.04067 0.0618 0.01686 0.26846-0.03704 0.32152-0.09684 0.37403-0.05389 0.0531-0.24892 0.0351l-2.7008-0.24891q-0.22458-0.0207-0.28558-0.11336-0.05443-0.0978-0.02268-0.37344 0.02116-0.18372 0.056-0.22693 0.04141-0.0484 0.20892-0.1026 0.22925-0.0717 0.28971-0.12996 0.06112-0.064 0.07634-0.19605l0.79893-6.9356q0.01719-0.14927-0.03856-0.23564-0.04984-0.0858-0.24677-0.19102-0.14047-0.0768-0.11534-0.29494 0.0026-0.023 0.03501-0.25208 0.06324-0.23787 0.31145-0.21499l3.6878 0.33987q0.16548 0.0152 0.22453 0.0729 0.05906 0.0577 0.07137 0.26188 0.0019 0.035 0.0065 0.0992l0.11912 1.2991q0.0098 0.12275-1.7e-4 0.20887-0.02116 0.18372-0.30484 0.15758-0.37824-0.0349-0.45692-0.18137-0.07869-0.14651-0.21679-0.71046-0.08575-0.34444-0.19663-0.47071-0.10497-0.12572-0.3591-0.14914-0.07092-7e-3 -0.26202-7e-3l-0.37764 3.2783 0.3014 0.0278q0.2364 0.0218 0.33695-0.0734 0.10712-0.10037 0.17826-0.35492 0.08692-0.28791 0.14346-0.36393 0.0572-0.0818 0.39998-0.0502 0.2364 0.0218 0.27838 0.0721 0.0479 0.0508 0.03269 0.18288l-0.23942 2.0784q-0.01521 0.13205-0.06712 0.16789-0.05191 0.0358-0.30603 0.0124-0.30732-0.0283-0.37881-0.13356-0.06558-0.10468-0.0633-0.48742-3e-3 -0.38904-0.38711-0.42444z"/>
    <path d="m-23.84 291.69 0.24419 3.4886q0.01891 0.27012 0.36981 0.33935 0.17525 0.0317 0.2212 0.0915 0.05148 0.0535 0.06597 0.26045 0.02253 0.32185-0.02684 0.38374-0.04343 0.0614-0.2392 0.0776l-2.711 0.22434q-0.22542 0.0186-0.30264-0.0617-0.07169-0.0865-0.09099-0.36243-0.01287-0.18391 0.01357-0.23234 0.03197-0.0547 0.18731-0.1369 0.21305-0.11012 0.26202-0.17776 0.04856-0.0734 0.03931-0.20557l-0.48596-6.9428q-0.01046-0.14943-0.08135-0.22449-0.06495-0.0755-0.27861-0.14458-0.15273-0.051-0.16802-0.26935-0.0016-0.023-0.01177-0.25337 0.0187-0.24433 0.26785-0.26495l3.7017-0.30632q0.1661-0.0138 0.23497 0.0326 0.06888 0.0463 0.11855 0.24454 0.0083 0.034 0.02461 0.0962l0.35626 1.2538q0.03217 0.11873 0.03821 0.20494 0.01287 0.18391-0.27187 0.20748-0.37966 0.0314-0.48423-0.0987-0.10457-0.13008-0.34448-0.65938-0.14791-0.32304-0.28053-0.42768-0.12669-0.10513-0.38177-0.084-0.07118 6e-3 -0.25981 0.0388l0.2297 3.2817 0.30254-0.025q0.23729-0.0196 0.31903-0.13046 0.08727-0.11705 0.11069-0.37911 0.03287-0.29754 0.0747-0.38192 0.04142-0.0901 0.38549-0.11861 0.23728-0.0196 0.28796 0.0224 0.05661 0.0416 0.06586 0.17375l0.14563 2.0805q0.0093 0.13219-0.03539 0.17635-0.04464 0.0442-0.29972 0.0653-0.30847 0.0255-0.39836-0.0653-0.08396-0.0913-0.15203-0.46721-0.07441-0.38115-0.46-0.34924z"/>
    <path d="m-15.154 287.59-0.79788-1.2995q-0.1105-0.18607-0.36524-0.29941-0.16844-0.072-0.21009-0.17936l-0.14579-0.37583q-0.06248-0.16107 0.09915-0.22188l2.2851-0.85981q0.11147-0.0419 0.16016 1e-3 0.05427 0.0411 0.12716 0.22902 0.11038 0.28456 0.09986 0.3562-7e-3 0.0642-0.0956 0.16518-0.13388 0.14881-0.10056 0.23472 0.04374 0.11275 0.17372 0.3161l1.9683 3.1971-0.71342-3.7984q-0.01522-0.0558-0.03817-0.11485-0.0958-0.24697-0.43004-0.26888-0.1699-0.01-0.29211-0.30846-0.03124-0.0805-0.04931-0.11066l-0.01875-0.0483q-0.04999-0.12885 0.15066-0.20435l1.2819-0.48233q0.13376-0.0503 0.19152-0.0167 0.05568 0.0283 0.11399 0.1786 0.01874 0.0483 0.03191 0.0987l0.0645 0.21568q0.02561 0.13188-0.09296 0.28724-0.11857 0.15536-0.0736 0.403l1.406 7.5925q0.08442 0.44814 0.0655 0.54755-0.01892 0.0994-0.15268 0.14974l-0.93634 0.35231q-0.15048 0.0566-0.30821-0.23473-0.02848-0.057-0.04655-0.0871l-2.1761-3.5188 0.79104 4.1138q0.05054 0.24554 0.0247 0.31064-0.02376 0.0705-0.12408 0.10821l-0.97535 0.36699q-0.1672 0.0629-0.45834-0.47356-0.05072-0.0978-0.08269-0.14732l-4.0271-6.4463q-0.12998-0.20335-0.35905-0.23406-0.1873-0.0218-0.2477-0.17752l-0.16037-0.41341q-0.0479-0.12349 0.10815-0.18221l2.2071-0.83044q0.11147-0.0419 0.17897 3.4e-4 0.06541 0.0369 0.14456 0.24093 0.08956 0.23087 0.09575 0.29622 0.0062 0.0654-0.05383 0.17407-0.0719 0.14395-0.03024 0.25133 0.0479 0.12349 0.15216 0.29345l2.1178 3.3685z"/>
    <path d="m-8.7671 282.28 1.8504 2.7352 0.33944-0.21781q0.13977-0.0897 0.16577-0.1888 0.026005-0.0991-0.068682-0.31316-0.17018-0.37854-0.18061-0.46803-0.00543-0.0927 0.074434-0.14393 0.39435-0.25304 0.46695-0.25154 0.074351-7e-3 0.21694 0.20428l1.0791 1.5952q0.10046 0.1485 0.082948 0.22843-0.020752 0.0751-0.28032 0.2417-0.16972 0.1089-0.26851 0.0899-0.097037-0.027-0.3399-0.26964-0.22666-0.21865-0.32046-0.2409-0.088805-0.0255-0.19862 0.045l-0.38936 0.24984 2.2328 3.3005 0.26456-0.16976q0.24459-0.15695 0.24695-0.34394 0.00411-0.19498-0.21575-0.95383-0.093356-0.31792-0.058611-0.457 0.03476-0.13909 0.25939-0.28323 0.30949-0.19859 0.43911-7e-3 0.038888 0.0575 0.093454 0.18047l0.55092 1.2059q0.151 0.32903 0.15819 0.41372 0.00894 0.0767-0.16078 0.1856l-3.3295 2.1364q-0.12479 0.0801-0.19538 0.0498-0.073829-0.0351-0.25206-0.29852-0.11342-0.16766 0.014432-0.35961 0.20001-0.28634 0.070388-0.47795l-4.041-5.9734q-0.06656-0.0878-0.34777-0.0379-0.19188 0.0338-0.26072-4e-3 -0.06385-0.0415-0.21291-0.26182-0.12638-0.18682-0.11912-0.23957 4e-3 -0.0575 0.14879-0.15043l3.1847-2.0435q0.1198-0.0769 0.20063-0.0738 0.080834 3e-3 0.208 0.12758l1.0907 1.0725q0.084779 0.083 0.10746 0.11653 0.087497 0.12934-0.15211 0.28308-0.26955 0.17297-0.39829 0.17314-0.13198-5e-3 -0.37887-0.18968-0.4464-0.33183-0.67463-0.42582-0.22324-0.0972-0.36301-7e-3z"/>
    <path d="m-2.2902 279.07 5.1194 2.7447q0.26146 0.14203 0.49255 0.0605 0.15127-0.0516 0.32868 0.11638 0.021122 0.02 0.24087 0.25242 0.088805 0.10844-0.074634 0.27029l-1.6679 1.6518q-0.092195 0.0913-0.15532 0.0884-0.063128-3e-3 -0.21519-0.14693-0.025346-0.024-0.21127-0.21628-0.063461-0.0844-0.00925-0.20359 0.08764-0.1768-0.022187-0.28079-0.029568-0.028-0.080191-0.0597l-2.7156-1.4348 0.17432 0.44107 1.7234 1.6318q0.21543 0.20398 0.51806 0.12521 0.12609-0.0348 0.29083 0.12112 0.19431 0.18398 0.22837 0.28118 0.029838 0.0932-0.10008 0.22185l-1.7559 1.7389q-0.096386 0.0955-0.17212 0.0968-0.079958-3e-3 -0.26582-0.17862-0.18586-0.17598-0.20299-0.24903-0.021385-0.077 0.024444-0.19604 0.091696-0.21355-0.073044-0.36953l-5.0731-4.8034q-0.19008-0.17998-0.43388-0.11856-0.16394 0.0396-0.22291 0.0244-0.063194-0.0192-0.18992-0.13923-0.28724-0.27197-0.30853-0.33271-0.025513-0.0648 0.075067-0.16435l1.911-1.8925q0.1341-0.13281 0.24393-0.0288 0.34215 0.32396 0.38449 0.38841 0.038117 0.0604-0.00748 0.22834-0.095552 0.29919 0.069187 0.45517l2.1669 2.0518-1.1773-2.8845q-0.097755-0.23869-0.18646-0.32268-0.054913-0.052-0.23152-0.0244-0.18499 0.0359-0.26505 9e-3 -0.075866-0.0312-0.29974-0.24322-0.16474-0.15598-0.043209-0.27634l1.1105-1.0998q0.096386-0.0955 0.15536-0.0802 0.05897 0.0152 0.24061 0.18722 0.19431 0.18398 0.20721 0.25303 0.017091 0.0649-0.066251 0.26199-0.066718 0.1479-0.070709 0.20095-0.00399 0.053 0.038573 0.17454z"/>
    <path d="m4.5373 278.09-0.8399 1.1999 0.41501 0.34615q0.014738 0.01 0.037495 0.0383 0.11559 0.13087 0.22858 0.20421 0.17686 0.11479 0.45758-0.0311 0.14786-0.0785 0.23678-0.0627 0.088934 0.0158 0.24614 0.11788 0.20142 0.13073 0.22884 0.18343 0.025862 0.0447-0.03125 0.1263l-0.88694 1.2671q-0.073912 0.10559-0.29989-0.0411-0.2702-0.17538-0.31964-0.45178-0.041425-0.25723-0.19657-0.39283l-5.1607-4.641q-0.11585-0.11009-0.2141-0.17386-0.15229-0.0988-0.41466 0.031-0.12614 0.0577-0.32756-0.073-0.2702-0.17537-0.3139-0.24562-0.043706-0.0702 0.043643-0.19504l1.2834-1.8334q0.11759-0.16799 0.32674-0.12995 0.20915 0.038 0.80149 0.32477 0.2314 0.10831 0.45789 0.21344l5.95 2.7172q0.43333 0.1975 0.79756 0.10584 0.097714-0.0273 0.14554-0.0242 0.042914-6e-5 0.20503 0.10516 0.25055 0.16262 0.28598 0.23449 0.030522 0.0687-0.046749 0.17906l-1.495 2.1358q-0.067192 0.096-0.25387-0.0252-0.23581-0.15305-0.27796-0.21531-0.042154-0.0623-0.040128-0.22847 0.00951-0.23814-0.15752-0.34655-0.17194-0.11161-0.87132-0.41896zm-4.7853-2.2683 3.4442 3.0103 0.73911-1.0559z"/>
   </g>
   <path d="m-48.51 290.91a36.551 39.442 76.89 0 0 54.797-10.379 36.551 39.442 76.89 0 0-9.2735-50.861 36.551 39.442 76.89 0 0-54.797 10.379 36.551 39.442 76.89 0 0 9.2735 50.861z" fill="none"/>
   <g stroke-width=".091645">
    <text transform="rotate(-14.989)" x="-67.131851" y="262.00272" font-family="sans-serif" font-size="1.4663px" letter-spacing="0px" word-spacing="-.00091645px" style="line-height:1.25" xml:space="preserve"><tspan x="-67.131851" y="262.00272" stroke-width=".091645"/></text>
    <path d="m2.6498 270.21-0.10365 0.34693q-0.31733-0.0518-0.45162 0.18066-0.10313 0.17856-0.024586 0.36035 0.079623 0.17994 0.3084 0.31208 0.18041 0.10421 0.32974 0.13341 0.14747 0.0281 0.25797-0.0172 0.10972-0.0482 0.17633-0.16356 0.14826-0.25668-0.11794-0.53446l0.27634-0.24222q0.39764 0.42812 0.10328 0.93774-0.10528 0.18228-0.28588 0.28881-0.17952 0.10466-0.41659 0.0942-0.23706-0.0104-0.49002-0.15654-0.23621-0.13643-0.36242-0.32591-0.12806-0.19055-0.13317-0.40931-0.00404-0.22061 0.12273-0.44009 0.26643-0.46126 0.81108-0.36495zm-1.4601 0.0199q0.16867-0.29201 0.42774-0.48716 0.25828-0.19808 0.57117-0.28029 0.31211-0.0851 0.63481-0.0426 0.32192 0.0396 0.61393 0.20827 0.38315 0.22131 0.60063 0.60489 0.2167 0.38066 0.21919 0.81866 6.35e-4 0.43693-0.22175 0.82194-0.22561 0.39059-0.6044 0.60836-0.37772 0.21591-0.81572 0.21841-0.43879-4.4e-4 -0.8238-0.22283-0.38687-0.22345-0.60464-0.60225-0.21856-0.38173-0.21919-0.81866-0.001421-0.43986 0.22204-0.82673zm0.27899 0.16114q-0.18156 0.31434-0.17866 0.66576 0.00397 0.34956 0.17892 0.65649 0.17416 0.30399 0.48477 0.4834 0.31247 0.18049 0.66282 0.17945 0.34956-4e-3 0.65542-0.17706 0.30399-0.17415 0.48448-0.48662 0.17941-0.31062 0.17945-0.66282 3.71e-5 -0.35221-0.17226-0.65513-0.17308-0.30585-0.48741-0.48741-0.30875-0.17834-0.66203-0.17652-0.35328 2e-3 -0.66021 0.17677-0.30585 0.17308-0.48527 0.48369z"/>
    <text transform="rotate(-14.989)" x="-64.457626" y="263.32785" fill="#000000" font-family="Calibri" font-size="1.346px" font-weight="400" letter-spacing="0px" word-spacing="0px" style="line-height:125%" xml:space="preserve"><tspan x="-64.457626" y="263.32785" stroke-width=".091645"><tspan dx="0" dy="0" fill="#000000" font-family="Calibri" font-size="1.346px" font-weight="400" stroke-width=".091645"> </tspan></tspan></text>
   </g>
  </g>
  <rect transform="rotate(4.7145)" x="3.7727" y="175.62" width="116.74" height="188.88" ry="24.663" fill="#fff" stroke="#000" stroke-dashoffset=".65" stroke-linecap="round" stroke-linejoin="round" stroke-width="3.1718"/>
  <path transform="matrix(1.2472 -.37397 .37397 1.2472 -2413.3 -276.92)" d="m1672.6 983.54c-7.251 2.131-1.4397 10.357 5.8731 9.2362 16.025-1.1353 25.651-1.3492 41.84 7.6044-15.927 4.3581-33.976 4.4932-48.037 4.1895-3.5365-2.4327-7.1047-2.2954-10.652-0.4122-13.436-0.7195-26.713-2.1951-36.725-4.4492-9.3363-2.102-9.5916 8.5072-4.4102 10.133 9.0809 2.8491 24.762 4.0254 40.881 4.3887 3.5538 1.5706 7.1304 2.3874 10.668 0.1309 16.369 0 31.279-0.218 46.779-1.7266-4.5903 5.7467-38.374 10.24-44.449 9.1817-4.4941-2.8455-7.6804-3.232-14.106-0.129-12.842-0.064-26.223-2.7368-35.936-4.0351-8.5158-1.1383-11.332 8.2406-0.3281 10.57 6.7829 1.4361 20.587 3.5171 35.914 2.8906 4.1753 3.459 9.9193 3.6345 15.203-0.01 8.1987 0.6862 38.413-0.5067 55.996-10.703 11.075 10.408 21.741 27.359 35.39 35.766 16.776 10.332 31.414 13.524 46.185 13.544l-3.5263-34.015c-5.6975-2.8596-12.849-12.364-25.854-17.1-10.122-3.6863-19.554-0.1707-34.157-8.1011-10.917-5.9286-14.235-19.483-23.504-23.161-24.86-9.772-36.312-7.7796-53.046-3.7976z" clip-path="url(#clipPath6785)" fill="#c45a0b" fill-rule="evenodd" stroke="#000" stroke-linecap="round" stroke-linejoin="round" stroke-width="2.304"/>
  <g fill="#a06823" fill-rule="evenodd" stroke="#000" stroke-linecap="round" stroke-linejoin="round" stroke-width="3">
   <path d="m256.06 287.6c-50.918 13.325-60.826 38.163-38.354 95.777 46.855 17.194 86.271 1.0087 95.292-33.506"/>
   <path d="m108.77-7.3963c-45.62 0.22375-100.53 19.158-117.51 66.263l17.256 41.202c23.315 30.727 71.868 35.274 111.53 39.214-0.19357 99.939 44.452 88.327 74.029 132.04 24.296 54.537 80.219 79.302 156 94.906 97.317-13.932 181.38-75.82 190.57-206.67-39.274-59.767-105.09-106.09-175.11-118.11-36.142-6.2057-73.882 0.087912-105.11 11.421-24.411 8.8591-54.172 6.7034-68.139-16.52-7.0748-11.763-16.389-24.026-28.827-31.797-12.346-7.7135-32.409-12.067-54.689-11.957z"/>
   <path d="m541.63 341.58c64.314 40.195 122.09 66.823 161.84 114.54-65.29-23.954-140.01-56.063-186.62-100.22"/>
  </g>
  <path d="m11.845 101.79c22.095 26.206 77.673 34.65 104.91 32.214 22.92-2.0493 37.452-29.748 28.804-42.098-13.357-19.075-46.366-21.116-61.759-18.943-21.305 3.0077-26.356 17.951-72.971 5.0917z" fill="#c4976c" fill-rule="evenodd"/>
  <path d="m-4.1988 49.74c-73.875 52.456-95.598 47.596-98.449 70.863 19.345 8.9156 46.548-10.437 134.58-14.731-12.744-11.347-2.4674-16.432 6.8885-23.953-20.434-6.0471-38.608-6.0356-43.016-32.179z" fill="#c45a0b" fill-rule="evenodd" stroke="#000" stroke-linecap="round" stroke-linejoin="round" stroke-width="3"/>
  <path d="m-100.54 119.58c58.57-32.167 81.133-11.431 135.75-36.595" fill="none" stroke="#000" stroke-linecap="round" stroke-linejoin="round" stroke-width="3"/>
  <path d="m-35.908 85.106c-1.7196-5.5643 18.544-5.5918 21.24-3.1951 2.1912 1.9484-19.518 8.7668-21.24 3.1951z" fill-rule="evenodd"/>
  <path d="m44.212 49.859c8.4587-14.841 23.785-19.369 38.724-4.0979-9.0111 26.418-29.694 19.905-38.724 4.0979z" fill="none" stroke="#fff" stroke-linecap="round" stroke-linejoin="round" stroke-width="4"/>
  <g>
   <g fill-rule="evenodd">
    <path d="m14.519 50.246c9.8944-15.053 30.805-46.36 79.447-32.118 14.486 2.1545 23.592-4.1339 28.058-8.1217 10.364 10.917 23.35 17.533 46.746 19.388 0 0-26.164 16.935-39.052 15.217-6.0556-0.80713-14.859-8.9682-14.859-8.9682-8.4921 2.0812-11.841 8.5387-24.238 0.49437-35.944-23.322-58.244 11.431-65.799 19.051-2.6081 2.6306-12.429-1.7068-10.302-4.9428z" fill="#c4976c"/>
    <g stroke="#000" stroke-linecap="round" stroke-linejoin="round">
     <g stroke-width="3">
      <path d="m495.79 332.47c19.466 8.8145 34.417 28.498 44 50.126-38.284-6.4094-59.752 0.58044-79.286-24.755" fill="#a06823"/>
      <path d="m449.34 326.87c31.184 18.827 59.333 28.297 95.328 37.052-0.87947-41.812-19.704-62.281-44.749-75.35" fill="#c45a0b"/>
      <path d="m414.41 332.2c14.452 14.491 67.793 35.325 93.625 33.422-1.8029-9.9784-28.16-50.371-34.237-57.853" fill="#c45a0b"/>
      <path d="m554.18 249.78c19.466 8.8145 38.424 42.122 48.007 63.749-37.483-12.82-45.327-17.851-64.861-43.187" fill="#a06823"/>
     </g>
     <path d="m501.7 232.73c18.861 11.816 62.674 39.515 88.144 47.245-10.039-44.595-46.366-95.142-69.919-115.25" fill="#c45a0b" stroke-width="3.1718"/>
     <path d="m46.714 49.827c7.3302-12.861 20.611-16.785 33.557-3.5511-7.8086 22.893-25.732 17.249-33.557 3.5511z" fill="#8a1300" stroke-width="3"/>
    </g>
   </g>
   <circle transform="rotate(12.678)" cx="71.424" cy="35.578" r="4.8767"/>
   <circle transform="rotate(12.678)" cx="76.704" cy="30.298" r="3.9069" fill="#fff"/>
   <g fill-rule="evenodd" stroke="#000" stroke-linecap="round" stroke-linejoin="round" stroke-width="3">
    <path d="m-13.754 367.51c1.4556 1.5956 3.2296 4.6065 0.35849 7.3788-9.9122 4.6831-17.318 0.63768-20.728-7.0602 7.4428 1.077 13.215 2.6642 20.369-0.31864z" fill="#666"/>
    <path d="m-6.8 390.13c1.4984 1.5554 3.3537 4.517 0.55898 7.3664-9.7812 4.9509-17.294 1.1083-20.912-6.494 7.4693 0.87422 13.283 2.3038 20.353-0.87234z" fill="#666"/>
    <path d="m410.18 358.68c19.083 11.524 34.46 29.512 64.214 22.429-2.4467-26.236-16.755-45.9-35.417-63.151" fill="#c45a0b"/>
    <path d="m370.16 388.59c-15.161 20.565-19.898 29.252-22.516 52.896-1.2636 11.414 9.1003 46.04 9.3416 60.749-12.407-11.441-35.901-22.896-48.036-26.117-2.0902-4.4466-6.8451-6.0763-11.441-4.4453-9.1535-3.142-23.131-4.7414-29.907-5.6141-12.819-1.6511-16.128 10.455-3.6422 12.864 6.7941 1.3108 21.296 2.132 29.711 5.0911 2.1763 3.4787 6.1412 5.8654 10.867 3.7934 9.3851 1.9215 29.927 10.188 36.492 16.936-10.178-2.7033-31.018-7.8074-42.492-6.9539-4.0352-3.2458-10.125-2.4533-13.511 0.54674-12.645-1.3251-37.522 2.2093-46.477 4.7199-8.9705 2.5149-6.069 13.552 2.1779 12.537 13.988-1.7205 31.983-5.6836 44.114-4.7706 3.9097 2.9567 9.5628 2.749 13.186-0.49843 14.314-0.13541 21.765 0.74713 42.148 5.3438-17.812 1.2493-29.682 2.425-39.261 3.7282-3.4852-3.192-11.748-2.9224-15.015 1.9802-14.221 0.65088-30.173 3.5103-41.408 5.8568-10.781 2.2516-10.127 15.001 2.3346 12.822 10.411-1.8203 25.432-5.4047 40.076-7.0291 4.576 3.8188 11.939 2.7673 15.177-1.7114 9.5436-2.4568 39.962-5.1531 64.266-4.9107 15.184 0.15144 63.331 7.4752 74.67 12.649 6.0327 2.7528 14.439-8.2171 8.2726-13.435-12.604-10.667-49.675-11.212-65.291-14.638-4.5676-12.104 22.333-38.743 24.883-55.116 3.9309-25.241 0.83706-40.959-4.3315-64.623z" fill="#c45a0b"/>
   </g>
  </g>
  <g fill="#666" fill-rule="evenodd" stroke="#000" stroke-linecap="round" stroke-linejoin="round" stroke-width="3">
   <path d="m444.8 522.66c-3.9159 1.8633-5.2392 5.6787-4.674 8.842 9.0589 1.0248 15.77-0.27355 17.601 10.429 5.6054-7.5108 4.7206-18.17-12.927-19.271z"/>
   <path d="m244.08 534.7c0.77666-2.0152 1.3362-5.4648-2.3457-7.0052-10.936-0.7635-16.367 5.6951-16.749 14.106 6.5436-3.7064 11.346-7.2817 19.094-7.1007z"/>
   <path d="m241.26 510.13c0.92694-1.9508 1.7454-5.3482-1.8093-7.1625-10.847-1.5879-16.75 4.4417-17.767 12.8 6.8051-3.2012 11.863-6.4033 19.576-5.6372z"/>
   <path d="m264.39 473.11c1.2774-1.7414 2.7205-4.9241-0.42929-7.375-10.355-3.6011-17.287 1.2098-19.858 9.2271 7.2857-1.8633 12.857-4.0561 20.288-1.8521z"/>
  </g>
  <g fill-rule="evenodd">
   <path d="m242.18 146.05c20.169-10.016 37.651-16.358 60.363-19.692-18.392-5.4629-46.517-9.4943-76.691 9.4615 11.909-3.4092 29.937-7.3471 37.455-6.1556-6.3911 2.443-18.971 11.395-21.127 16.386z"/>
   <path d="m230.04 110.68c16.351-15.484 31.208-26.669 51.947-36.51-19.185 0.16401-47.258 4.548-70.556 31.511 10.388-6.7482 26.472-15.794 34.009-16.857-5.3952 4.208-14.801 16.452-15.401 21.856z"/>
   <path d="m296.45 110.96c22.099-4.3311 40.635-5.8296 63.421-3.0445-16.295-10.128-42.356-21.446-76.466-11.136 12.387-0.14181 30.815 0.82325 37.751 3.9586-6.8094 0.66772-21.308 5.9781-24.706 10.222z"/>
   <path d="m375.29 91.48c22.445 1.8266 40.692 5.4129 61.868 14.275-12.936-14.169-34.948-32.133-70.577-31.463 11.961 3.2239 29.436 9.1522 35.261 14.052-6.7353-1.2047-22.13-0.02675-26.552 3.1361z"/>
   <path d="m393.33 130.16c20.844 8.5249 37.154 17.458 54.661 32.306-8.0489-17.416-23.603-41.193-57.767-51.322 10.427 6.6882 25.293 17.621 29.365 24.052-6.0563-3.1841-21.087-6.7141-26.259-5.0356z"/>
   <path d="m449.08 118.31c18.128 13.36 31.76 26.009 45.107 44.686-3.5484-18.855-12.819-45.712-43.472-63.884 8.4762 9.0336 20.22 23.268 22.597 30.499-5.0946-4.5675-18.807-11.664-24.232-11.3z"/>
   <path d="m305.83 73.849c21.458-6.8317 39.701-10.442 62.656-10.283-17.347-8.1964-44.532-16.458-77.238-2.3117 12.289-1.5585 30.707-2.7088 37.956-0.38783-6.6882 1.4426-20.484 8.3774-23.373 12.982z"/>
  </g>
  <g fill-rule="evenodd" stroke="#000" stroke-linecap="round" stroke-linejoin="round" stroke-width="3">
   <path d="m562.42 284.36c50.068 56.966 97.768 99.059 122.14 156.18-55.665-41.689-95.352-70.844-125.94-131.12" fill="#a06823"/>
   <path d="m559.67 281.63c39.635 64.661 89.086 133.5 103.38 193.93-47.752-50.56-94.361-101.35-114.24-165.96" fill="#a06823"/>
   <path d="m478.73 304.86c28.155 5.8257 69.571 24.84 92.488 41.398-12.614-38.532-19.857-71.457-51.34-91.602" fill="#c45a0b"/>
   <path d="m485.71 266.99c30.797 9.1135 70.428 27.395 95.911 47.394-14.118-33.712-31.362-68.953-55.49-82.157" fill="#c45a0b"/>
  </g>
  <g fill="#a06823" fill-rule="evenodd" stroke="#000" stroke-linecap="round" stroke-linejoin="round" stroke-width="3">
   <path d="m475.24 263.88c17.485 12.282 27.085 65.727 30.718 79.776-34.687-8e-3 -58.266-20.401-72.745-48.929"/>
   <path d="m502.31 235.26c17.485 12.282 30.931 53.019 34.563 67.068-34.687-8e-3 -62.112-7.6928-76.59-36.221"/>
   <path d="m516.24 190.78c19.466 8.8145 52.024 58.555 58.207 71.682-34.083 6.4459-74.227-8.218-93.76-33.554"/>
   <path d="m531.23 146.21c23.596 29 41.775 62.161 44.672 76.069-33.685 8.2775-58.373-12.115-79.247-36.359"/>
   <path d="m335.06 335.82c-14.287 57.05 16.909 87.031 75.869 99.238 26.134-16.1 25.605-33.605 22.05-76.646 14.454-35.934 25.073-61.664 24.258-85.977-5.9319-176.82-251.4-120.15-246.24-29.278 3.1087 54.676 82.668 87.048 124.06 92.664z"/>
  </g>
  <path d="m227.13 260.47c20.389 45.081 105.64 79.824 149.04 49.214-39.308-9.8092-57.281-11.968-77.781-35.457 145.61-0.65163 110.45-144.89-23.558-90.978-43.215 18.92-58.457 48.156-47.699 77.222z" fill="#c4976c" fill-rule="evenodd"/>
  <g fill="#7c441b" stroke="#000" stroke-width="3">
   <path d="m33.39 595.99q6.8362 11.029 6.2911 18.808-0.50105 7.7275-7.8155 16.207-11.148 12.923-23.313 13.872-12.165 0.94851-26.201-10.331l-25.803-20.736q-1.583-1.2722-0.21703-2.8556l2.6438-3.0648q1.1016-1.277 3.055-0.74502 4.1974 1.0379 6.4887-1.6183l53.184-61.654q1.1016-1.277 1.076-2.076-0.02556-0.79897-1.299-3.4657-0.65876-1.3078-0.38513-2.0393 0.32639-0.68909 2.2211-2.8855 1.6744-1.941 2.7749-2.181 1.1532-0.19759 2.5252 0.90494l28.916 23.238q10.448 8.3962 11.591 18.05 1.1429 9.654-5.731 17.623-5.7282 6.6404-14.038 7.5735-8.2571 0.97545-15.964-2.6232zm11.776-40.788-23.133 26.817 2.7966 2.2475q2.6383 2.1203 5.3936 1.8263 2.808-0.25158 5.9713-3.5043 3.2601-3.2614 7.7986-8.5227 6.3451-7.3556 6.7183-10.688 0.47002-3.3414-2.7487-5.9281zm-28.156 32.64-32.915 38.157q4.8545 3.9012 7.5918 3.9388 2.7901 0.0799 6.3146-3.488 3.5773-3.5255 11.332-12.516 1.5863-1.8389 7.024-8.4533 5.4818-6.6655 6.1525-8.3752 0.67074-1.7097 0.11806-3.4512-0.49991-1.6991-2.8216-3.5649z"/>
   <path d="m82.029 576.83 25.868 14.187q1.3143 0.7208 1.3326 1.4948 0.0523 0.7162-1.6145 3.5453-1.6668 2.8291-3.9436 2.8027-1.7225-0.028-2.6427 0.4605-0.8604 0.52121-2.119 2.6575l-38.098 64.665q-1.5647 2.6559-0.99791 5.1821 0.60085 2.4685 2.9905 3.779 2.2105 1.2123 4.8523 0.21657 2.6418-0.99572 3.9684-3.2474l38.098-64.665q0.98647-1.6744 1.0022-2.506 0.10948-0.85665-0.62657-2.559-1.1468-2.6151 0.69004-5.7329 1.4287-2.4249 2.2385-2.592 0.90357-0.19199 1.9789 0.39775l12.904 7.077q2.1507 1.1795 0.92614 3.258l-1.6328 2.7714q-1.0885 1.8476-1.6336 2.2361-0.5111 0.33085-1.8843 0.11252-3.3522-0.61612-5.0189 2.213l-37.112 62.99q-5.2725 8.9491-13.685 11.287-8.3785 2.2803-17.878-2.9291-10.634-5.832-12.984-14.454-2.2905-8.5897 3.8664-19.04l35.853-60.854q1.4287-2.4249-0.51966-5.0213-0.97417-1.2982-1.0008-1.9239 0.06718-0.65069 1.0196-2.2673 1.9729-3.3487 2.9014-3.9854 0.92844-0.63671 2.8999 0.4445z"/>
   <path d="m146.3 667.25-14.872 37.639q-1.1515 2.9144 2.1575 5.3433 1.6668 1.1835 1.8469 2.0315 0.26886 0.8097-0.61316 3.042-1.3721 3.4725-2.1952 3.8792-0.75888 0.43046-2.8786-0.35175l-29.355-10.832q-2.4409-0.90072-2.8442-2.1153-0.31457-1.2529 0.86147-4.2293 0.78403-1.9843 1.3012-2.3618 0.60592-0.41585 2.6342-0.51997 2.7687-0.11511 3.6163-0.58388 0.87212-0.53076 1.4356-1.957l29.597-74.906q0.63702-1.6122 0.27345-2.7411-0.29933-1.1051-2.18-2.8649-1.3364-1.2747-0.40532-3.631 0.098-0.24804 1.1423-2.7047 1.4144-2.4621 4.1123-1.4666l40.082 14.791q1.7986 0.66369 2.2846 1.4825t0.014 3.1313q-0.0828 0.39576-0.22381 1.1252l-2.5486 14.832q-0.25759 1.397-0.6251 2.3271-0.78402 1.9843-3.8673 0.84651-4.111-1.517-4.5507-3.3844-0.43973-1.8675-0.29611-8.5642 0.0721-4.0942-0.78679-5.8322-0.79467-1.7142-3.5568-2.7335-0.7708-0.28443-2.8998-0.85691l-13.99 35.407 3.2759 1.2089q2.5694 0.94813 3.9739 0.18752 1.4933-0.7989 3.0454-3.4234 1.8276-2.9491 2.6845-3.6276 0.88139-0.7405 4.607 0.63428 2.5694 0.94813 2.8872 1.6338 0.38211 0.70941-0.18141 2.1356l-8.8693 22.447q-0.56351 1.4262-1.2489 1.6706-0.68538 0.24443-3.4474-0.7748-3.3402-1.2326-3.823-2.6186-0.41853-1.3623 0.74887-5.6207 1.1277-4.3442-3.0475-5.8849z"/>
   <path d="m210.5 684.9-7.6878 39.605q-0.59527 3.0666 3.1086 4.8851 1.8583 0.87663 2.1919 1.68 0.41393 0.75031-0.042 3.0992-0.70927 3.6539-1.4441 4.1963-0.66724 0.55464-2.8971 0.15108l-30.88-5.5888q-2.5677-0.46471-3.1886-1.5902-0.54064-1.1785 0.0673-4.3104 0.40529-2.0879 0.84447-2.5488 0.51941-0.51385 2.4958-0.96663 2.7028-0.59149 3.4503-1.1991 0.76012-0.67292 1.0514-2.1736l15.3-78.819q0.3293-1.6964-0.23668-2.7444-0.49841-1.0358-2.6734-2.4425-1.55-1.0235-1.0687-3.5029 0.0506-0.261 0.62485-2.8587 0.93737-2.667 3.7754-2.1534l42.165 7.631q1.892 0.34241 2.5213 1.0642 0.62931 0.72175 0.59145 3.0788-8e-3 0.40372-0.0129 1.1459l0.22911 15.035q4e-3 1.4191-0.18567 2.3978-0.40528 2.0879-3.6487 1.5009-4.3246-0.78267-5.1018-2.5443-0.7772-1.7616-1.8714-8.376-0.68442-4.0412-1.8501-5.603-1.0981-1.5496-4.0037-2.0754-0.81086-0.14675-3.0112-0.34235l-7.2318 37.256 3.4462 0.6237q2.7029 0.48916 3.9444-0.50186 1.3218-1.044 2.3648-3.8946 1.2541-3.2176 1.972-4.0332 0.73055-0.8809 4.6497-0.17159 2.7029 0.48917 3.1421 1.109 0.50683 0.63205 0.21553 2.1328l-4.5848 23.62q-0.2913 1.5007-0.92054 1.8596-0.62923 0.35889-3.5348-0.16696-3.5138-0.63592-4.2444-1.9163-0.66313-1.2682-0.30023-5.6602 0.308-4.4694-4.0842-5.2643z"/>
   <path d="m319.52 665.2-5.0143-16.862q-0.67623-2.4033-3.1768-4.4264-1.6622-1.3047-1.8061-2.6256l-0.50329-4.6232q-0.2157-1.9814 1.7669-2.1768l28.03-2.7635q1.3673-0.1348 1.7811 0.49195 0.48209 0.62001 0.73375 2.9316 0.38106 3.5004 0.05 4.2674-0.26993 0.69416-1.5582 1.5555-1.936 1.2589-1.8209 2.3157 0.15099 1.387 0.99271 4.0409l12.395 41.501 3.3831-44.458q-3e-3 -0.6672-0.0827-1.3937-0.33073-3.0381-3.99-4.2794-1.8638-0.61729-2.3348-4.3091-0.10785-0.99069-0.21935-1.3802l-0.0648-0.59442q-0.17256-1.5851 2.2887-1.8277l15.724-1.5503q1.6408-0.16177 2.1841 0.38547 0.53608 0.48118 0.7374 2.3305 0.0647 0.59441 0.061 1.1956l0.0753 2.596q-0.1081 1.546-1.893 2.9236-1.7849 1.3776-2.0226 4.2714l-6.9857 88.805q-0.39633 5.2459-0.90378 6.2973-0.50746 1.0514-2.1483 1.2131l-11.486 1.1324q-1.8459 0.18197-2.7343-3.5354-0.14747-0.71976-0.25897-1.1093l-13.752-45.706-3.459 48.204q-0.16939 2.8872-0.65162 3.5355-0.47503 0.71436-1.7056 0.83569l-11.964 1.1795q-2.051 0.20221-3.6948-6.645-0.27334-1.2414-0.48198-1.8884l-25.643-83.852q-0.84173-2.654-3.3028-3.6796-2.0221-0.80195-2.2306-2.7173l-0.55364-5.0855q-0.16537-1.519 1.7489-1.7078l27.073-2.6691q1.3673-0.1348 1.9934 0.53778 0.61884 0.60655 0.89205 3.1163 0.30916 2.84 0.18316 3.5867-0.12599 0.74672-1.1192 1.7792-1.2307 1.3897-1.0869 2.7106 0.16537 1.519 0.82004 3.7242l13.55 43.857z"/>
   <path d="m406.55 625.02 12.459 36.002 4.4325-1.4144q1.8252-0.58241 2.4107-1.6094 0.58555-1.027 0.16897-3.6947-0.76703-4.7262-0.61623-5.7545 0.21599-1.0491 1.259-1.3819 5.1496-1.6432 5.9542-1.4099 0.84794 0.14943 1.808 2.9238l7.2662 20.996q0.67643 1.9546 0.2428 2.7931-0.45546 0.77546-3.845 1.8571-2.2163 0.7072-3.2603 0.20021-1.0007-0.59087-2.9833-4.019-1.8735-3.1129-2.8524-3.6407-0.91368-0.54862-2.3478-0.091l-5.0844 1.6224 15.034 43.442 3.4548-1.1024q3.194-1.0192 3.7782-3.096 0.62753-2.1606 0.44161-11.273-0.0918-3.8214 0.71041-5.2677 0.80237-1.4463 3.7357-2.3823 4.0414-1.2896 4.9142 1.2324 0.26185 0.75663 0.50298 2.29l2.5414 15.082q0.70101 4.1172 0.5284 5.0824-0.12926 0.88141-2.3455 1.5886l-43.478 13.874q-1.6296 0.52003-2.3259-0.0279-0.71813-0.611-1.9182-4.0788-0.76371-2.2068 1.2338-3.9644 3.0833-2.5942 2.2105-5.1162l-27.21-78.625q-0.47978-1.1772-3.7625-1.4599-2.2392-0.19563-2.8922-0.82747-0.58776-0.65261-1.5915-3.5529-0.85099-2.459-0.61263-3.0251 0.21653-0.62921 2.1069-1.2324l41.588-13.271q1.5644-0.4992 2.456-0.22361 0.89159 0.2756 1.9373 2.0423l8.954 15.206q0.69714 1.1778 0.84988 1.6192 0.58916 1.7024-2.5397 2.7008-3.52 1.1232-4.9551 0.74103-1.457-0.44526-3.6561-3.2442-3.9845-5.0298-6.2475-6.7581-2.1978-1.7492-4.0229-1.1668z"/>
   <path d="m488.31 608.56 48.861 45.861q2.4899 2.3628 5.3085 2.1434 1.8397-0.12379 3.3155 2.2775 0.17572 0.28587 1.9311 3.5317 0.66609 1.4734-1.6382 2.7894l-23.515 13.43q-1.2998 0.74238-1.9945 0.52122-0.6947-0.22119-1.9597-2.2794-0.21084-0.34304-1.7091-3.0405-0.45525-1.1304 0.50438-2.2964 1.5042-1.7087 0.59054-3.1953-0.24597-0.40021-0.71554-0.90447l-25.982-24.091 0.6266 5.4354 14.337 23.327q1.7921 2.9159 5.3996 2.941 1.5091-0.0122 2.8796 2.2175 1.6164 2.63 1.706 3.8147 0.0544 1.1276-1.7772 2.1737l-24.756 14.139q-1.3589 0.77613-2.2069 0.56527-0.88315-0.26803-2.4293-2.7837-1.5461-2.5157-1.5191-3.3808-8e-3 -0.9223 0.85734-2.1118 1.659-2.1062 0.28856-4.3359l-42.202-68.666q-1.5812-2.5728-4.4813-2.6158-1.9451-0.0477-2.5568-0.39358-0.6468-0.40302-1.701-2.1182-2.3895-3.8878-2.4454-4.6283-0.0911-0.79765 1.3269-1.6075l26.942-15.388q1.8907-1.0798 2.8043 0.40667 2.8463 4.6311 3.1258 5.4756 0.24442 0.78733-0.76468 2.5223-1.9575 3.0491-0.5871 5.2789l18.026 29.33-4.5137-35.657q-0.3772-2.9516-1.1151-4.1522-0.45682-0.74326-2.5073-0.96251-2.1687-0.15177-2.98-0.69254-0.75222-0.57454-2.6146-3.6048-1.3704-2.2298 0.343-3.2084l15.657-8.9424q1.3589-0.77614 1.9706-0.43029 0.61167 0.34583 2.1227 2.8043 1.6164 2.63 1.5542 3.438-3e-3 0.77421-1.52 2.722-1.1848 1.4491-1.3875 2.0284-0.20275 0.57925-0.0909 2.0602z"/>
   <path d="m567.31 618.06-12.94 10.866 3.592 5.0957q0.1357 0.15058 0.30357 0.53866 0.89767 1.8032 1.938 2.9577 1.6284 1.8069 5.1919 1.019 1.882-0.43405 2.8258 7e-3 0.9438 0.44192 2.3912 2.048 1.8545 2.0579 2.0028 2.7269 0.15481 0.57538-0.72509 1.3142l-13.665 11.474q-1.1387 0.95617-3.2194-1.3526-2.4878-2.7606-2.2141-5.9883 0.30587-2.9902-1.0185-4.9642l-43.663-67.116q-0.96248-1.5725-1.8671-2.5763-1.4022-1.556-4.7134-0.89168-1.578 0.26694-3.4325-1.7909-2.4878-2.7605-2.7652-3.6738-0.27745-0.91328 1.0683-2.0433l19.772-16.603q1.8116-1.5212 4.0289-0.47332 2.2173 1.0478 7.9627 6.0107 2.2556 1.8975 4.4659 3.7448l58.199 48.033q4.2397 3.4938 8.5722 3.5591 1.1704-0.0129 1.6941 0.16465 0.47843 0.12728 1.9711 1.7836 2.3068 2.5598 2.4873 3.4663 0.13524 0.85634-1.0552 1.856l-23.033 19.341q-1.0352 0.86924-2.754-1.038-2.1711-2.4092-2.4551-3.2288-0.28398-0.81961 0.23451-2.6658 0.81647-2.6254-0.72142-4.3319-1.5831-1.7567-8.4598-7.2686zm-46.558-39.556 29.4 43.823 11.387-9.5617z"/>
  </g>
  <path d="m569.8 524.55-2.1902 3.5569q-3.3817-1.5244-5.5719 0.66581-1.6821 1.6821-1.3492 3.9424 0.35044 2.2428 2.5056 4.3979 1.6996 1.6996 3.2765 2.4706 1.5594 0.75342 2.9261 0.57821 1.3667-0.21025 2.453-1.2966 2.418-2.418 0.28034-6.3078l3.8022-1.8748q3.1539 5.9573-1.647 10.758-1.7171 1.7171-4.0475 2.3654-2.3128 0.63078-4.9236-0.19275-2.6107-0.82351-4.9936-3.2064-2.2252-2.2252-3.0663-4.7133-0.85856-2.5056-0.26282-4.9586 0.61326-2.4706 2.6808-4.5381 4.3454-4.3454 10.127-1.647zm-16.33-4.1351q2.7509-2.7509 6.2202-4.1526 3.4693-1.4368 7.2014-1.4192 3.7321-0.0176 7.2014 1.4192 3.4693 1.4017 6.2202 4.1526 3.6094 3.6094 4.8885 8.533 1.2791 4.8885 0 9.777-1.2966 4.871-4.9236 8.498-3.6795 3.6795-8.5506 4.9761-4.8535 1.2791-9.742 0-4.8885-1.3141-8.5155-4.9411-3.6445-3.6445-4.9411-8.5155-1.2966-4.906 0-9.777 1.2966-4.9061 4.9411-8.5506zm2.6282 2.6282q-2.9612 2.9612-3.9774 6.886-0.99873 3.9073 0.035 7.8497 1.0338 3.9073 3.9599 6.8334 2.9436 2.9436 6.8509 3.9774 3.9073 0.99873 7.8322-0.0176 3.9073-1.0338 6.8509-3.9774 2.9261-2.9261 3.9774-6.851 1.0513-3.9248 0.035-7.8146-1.0162-3.9248-3.9774-6.886-2.9086-2.9086-6.851-3.9424-3.9424-1.0338-7.8847-2e-5 -3.9248 1.0163-6.851 3.9424z" stroke-width="1.0572"/>
  <text x="602.87988" y="543.34619" fill="#000000" font-family="Calibri" font-size="15.528px" font-weight="400" letter-spacing="0px" stroke-width="1.0572" word-spacing="0px" style="line-height:125%" xml:space="preserve"><tspan x="602.87988" y="543.34619" stroke-width="1.0572"><tspan dx="0" dy="0" fill="#000000" font-family="Calibri" font-size="15.528px" font-weight="400" stroke-width="1.0572"> </tspan></tspan></text>
  <g transform="matrix(1.0572 0 0 1.0572 12.517 10.991)">
   <g fill-rule="evenodd">
    <circle transform="rotate(6.7947)" cx="55.023" cy="244.21" r="43.341" fill="#fff"/>
    <circle transform="rotate(6.7947)" cx="55.023" cy="244.21" r="40.2" fill="#89a02c" stroke="#000" stroke-dashoffset=".65" stroke-linecap="round" stroke-linejoin="round" stroke-width=".27493"/>
    <circle transform="rotate(6.7947)" cx="55.023" cy="237.61" r="32.341" fill="#abc837"/>
    <path d="m48.503 251.79c1.5851 0.95832 2.3458 2.5924 2.3683 4.7279-3.4918-0.53067-3.6811-1.3672-4.5554-3.1235" fill="#a06823" stroke="#000" stroke-linecap="round" stroke-linejoin="round" stroke-width=".27493"/>
   </g>
   <g fill="#fff" stroke="#000" stroke-dashoffset=".65" stroke-linecap="round" stroke-linejoin="round" stroke-width=".27493">
    <rect transform="rotate(-26.925)" x="-118.75" y="209.38" width="10.119" height="16.373" ry="2.1378"/>
    <rect transform="rotate(-8.4564)" x="-40.487" y="233.15" width="10.119" height="16.373" ry="2.1378"/>
    <rect transform="rotate(11.509)" x="48.723" y="229.34" width="10.119" height="16.373" ry="2.1378"/>
   </g>
   <path transform="matrix(.11119 -.019399 .019399 .11119 -200.2 171.02)" d="m1672.6 983.54c-7.251 2.131-1.4397 10.357 5.8731 9.2362 16.025-1.1353 25.651-1.3492 41.84 7.6044-15.927 4.3581-33.976 4.4932-48.037 4.1895-3.5365-2.4327-7.1047-2.2954-10.652-0.4122-13.436-0.7195-26.713-2.1951-36.725-4.4492-9.3363-2.102-9.5916 8.5072-4.4102 10.133 9.0809 2.8491 24.762 4.0254 40.881 4.3887 3.5538 1.5706 7.1304 2.3874 10.668 0.1309 16.369 0 31.279-0.218 46.779-1.7266-4.5903 5.7467-38.374 10.24-44.449 9.1817-4.4941-2.8455-7.6804-3.232-14.106-0.129-12.842-0.064-26.223-2.7368-35.936-4.0351-8.5158-1.1383-11.332 8.2406-0.3281 10.57 6.7829 1.4361 20.587 3.5171 35.914 2.8906 4.1753 3.459 9.9193 3.6345 15.203-0.01 8.1987 0.6862 38.413-0.5067 55.996-10.703 11.075 10.408 21.741 27.359 35.39 35.766 16.776 10.332 31.414 13.524 46.185 13.544l-3.5263-34.015c-5.6975-2.8596-12.849-12.364-25.854-17.1-10.122-3.6863-19.554-0.1707-34.157-8.1011-10.917-5.9286-14.235-19.483-23.504-23.161-24.86-9.772-36.312-7.7796-53.046-3.7976z" clip-path="url(#clipPath6785-4-7)" fill="#c45a0b" fill-rule="evenodd" stroke="#000" stroke-linecap="round" stroke-linejoin="round" stroke-width="2.436"/>
   <g fill="#a06823" fill-rule="evenodd" stroke="#000" stroke-linecap="round" stroke-linejoin="round" stroke-width=".27493">
    <path d="m23.775 246.99c-4.5194 0.62477-5.6269 2.661-4.2835 7.8505 3.8566 1.9605 7.4152 0.97157 8.5457-1.9067"/>
    <path d="m14.123 220.09c-3.929-0.4486-8.8496 0.61801-10.794 4.4984l1.0628 3.7234c1.6917 2.8838 5.8241 3.7732 9.1975 4.5191-1.0416 8.6001 2.9203 8.0585 5.0178 12.125 1.532 4.9433 6.0914 7.6484 12.454 9.7687 8.5193-0.20114 16.389-4.666 18.523-15.834-2.7675-5.5471-7.9573-10.209-13.861-11.962-3.0472-0.9048-6.3601-0.75012-9.1642-0.0949-2.192 0.51218-4.7315 0.0214-5.6956-2.1207-0.48831-1.0851-1.1642-2.2361-2.1551-3.0325-0.9836-0.79055-2.6658-1.371-4.5846-1.5901z"/>
    <path d="m47.802 254.56c5.1235 4.1193 9.8234 7.0038 12.755 11.519-5.3741-2.7314-11.476-6.2614-15.035-10.54"/>
   </g>
   <path d="m4.6604 228.49c1.633 2.4822 6.3302 3.779 8.6999 3.8487 1.9939 0.0587 3.5287-2.1764 2.911-3.3281-0.95405-1.7788-3.7743-2.2931-5.1215-2.2639-1.8646 0.0404-2.4527 1.2748-6.3331-0.31009z" fill="#c4aa97" fill-rule="evenodd"/>
   <path d="m3.8133 223.85c-6.8966 3.7574-8.7165 3.1164-9.2006 5.0897 1.5736 0.96579 4.1136-0.42096 11.735 0.11222-0.98051-1.1074-0.043861-1.4396 0.83856-1.9911-1.6968-0.73005-3.2612-0.91545-3.3725-3.2109z" fill="#c45a0b" fill-rule="evenodd" stroke="#000" stroke-linecap="round" stroke-linejoin="round" stroke-width=".27493"/>
   <path d="m-5.1954 228.87c5.3712-2.1681 7.1006-0.15186 12.059-1.7578" fill="none" stroke="#000" stroke-linecap="round" stroke-linejoin="round" stroke-width=".27493"/>
   <path d="m0.72129 226.56c-0.090949-0.49657 1.6535-0.29112 1.8609-0.0572 0.16862 0.19018-1.7699 0.55442-1.8609 0.0572z" fill-rule="evenodd"/>
   <path d="m7.979 224.35c0.88027-1.1907 2.2459-1.4232 3.3751 0.0444-1.0465 2.1814-2.76 1.4088-3.3751-0.0444z" fill="none" stroke="#fff" stroke-linecap="round" stroke-linejoin="round" stroke-width=".36658"/>
   <g>
    <g fill-rule="evenodd">
     <path d="m5.4193 224.08c1.006-1.1942 3.1269-3.6744 7.1677-1.9497 1.2248 0.33401 2.073-0.11388 2.4983-0.41132 0.78008 1.0459 1.83 1.7485 3.8247 2.1482 0 0-2.4257 1.1894-3.5174 0.90933-0.51295-0.13158-1.187-0.92431-1.187-0.92431-0.75229 0.092-1.1067 0.61352-2.0913-0.20603-2.8546-2.376-5.1305 0.38657-5.8589 0.96498-0.25146 0.19968-1.0523-0.27438-0.83604-0.5311z" fill="#c4aa97"/>
     <g stroke="#000" stroke-linecap="round" stroke-linejoin="round" stroke-width=".27493">
      <path d="m43.95 253.31c1.5851 0.95832 2.6702 2.8059 3.2732 4.7657-3.2295-0.9443-5.149-0.56283-6.5705-2.9439" fill="#a06823"/>
      <path d="m40.009 252.35c2.491 1.9403 4.8168 3.0441 7.8252 4.1668 0.35311-3.6079-1.0573-5.5628-3.0789-6.9446" fill="#c45a0b"/>
      <path d="m36.947 252.45c1.0953 1.3955 5.4729 3.7358 7.7158 3.8369-0.05285-0.87735-1.9072-4.6244-2.3536-5.3307" fill="#c45a0b"/>
      <path d="m49.823 246.79c1.5851 0.95832 2.8753 4.0196 3.4784 5.9794-3.0948-1.4879-3.7184-2.0014-5.1399-4.3824" fill="#a06823"/>
      <path d="m45.481 244.78c1.5023 1.2105 4.9893 4.044 7.1024 4.9705-0.4067-3.9414-3.0151-8.6647-4.8362-10.637" fill="#c45a0b"/>
      <path d="m8.1947 224.38c0.76283-1.0318 1.9462-1.2333 2.9248 0.0385-0.90689 1.8904-2.3918 1.2208-2.9248-0.0385z" fill="#8a1300"/>
     </g>
    </g>
    <circle transform="rotate(19.473)" cx="83.815" cy="208.57" r=".42273"/>
    <circle transform="rotate(19.473)" cx="84.273" cy="208.11" r=".33866" fill="#fff"/>
    <g fill-rule="evenodd" stroke="#000" stroke-linecap="round" stroke-linejoin="round" stroke-width=".27493">
     <path d="m-0.26798 251.1c0.10892 0.15226 0.23074 0.42961-0.044818 0.63879-0.9012 0.30144-1.4971-0.12271-1.7117-0.82027 0.62958 0.16903 1.1102 0.36484 1.7565 0.18148z" fill="#666"/>
     <path d="m0.098587 253.12c0.11302 0.14924 0.24234 0.42318-0.027432 0.63978-0.89267 0.32582-1.4999-0.082-1.7334-0.77343 0.63394 0.15185 1.1197 0.33453 1.7608 0.13365z" fill="#666"/>
     <path d="m36.312 254.69c1.5244 1.1876 2.6634 2.8936 5.2971 2.5891 0.05846-2.2833-0.9714-4.1226-2.4008-5.7988" fill="#c45a0b"/>
     <path d="m32.56 256.85c-1.5159 1.6146-2.0127 2.3138-2.4805 4.322-0.22582 0.96947 0.31112 4.0562 0.18105 5.3246-0.95055-1.112-2.8553-2.3389-3.8668-2.7406-0.1343-0.40417-0.52686-0.5932-0.93915-0.49995-0.75565-0.36432-1.9424-0.64534-2.5166-0.78993-1.0864-0.27359-1.4954 0.73453-0.44543 1.0699 0.57135 0.1825 1.8111 0.4019 2.5051 0.74291 0.15164 0.32174 0.46844 0.56783 0.89649 0.43796 0.7881 0.26163 2.4714 1.1838 2.9673 1.8319-0.84831-0.33706-2.5897-0.99011-3.5861-1.0343-0.31403-0.32075-0.84631-0.315-1.1686-0.0915-1.0748-0.24374-3.2523-0.19465-4.0488-0.0704-0.79791 0.12447-0.66136 1.1042 0.05888 1.1014 1.2216-5e-3 2.8112-0.1612 3.8459 0.0418 0.3062 0.29459 0.79491 0.33469 1.1401 0.0923 1.2334 0.13514 1.8657 0.28751 3.573 0.8922-1.546-0.0752-2.5797-0.0957-3.4176-0.0817-0.26724-0.31049-0.9812-0.37203-1.3127 0.0165-1.2308-0.0898-2.6331-7e-3 -3.6242 0.0794-0.95106 0.0832-1.0255 1.1873 0.06945 1.1276 0.91476-0.0499 2.2444-0.20438 3.5216-0.19402 0.3547 0.37563 0.99921 0.36062 1.3239 8e-3 0.84665-0.11359 3.4925-0.0337 5.582 0.23641 1.3054 0.16875 5.3744 1.2929 6.2973 1.8545 0.49103 0.29881 1.327-0.5592 0.84983-1.0716-0.97552-1.0474-4.1607-1.4745-5.4697-1.9295-0.26901-1.0887 2.3196-3.1056 2.707-4.4888 0.5972-2.1322 0.4921-3.5168 0.28991-5.6067z" fill="#c45a0b"/>
    </g>
   </g>
   <g fill="#666" fill-rule="evenodd" stroke="#000" stroke-linecap="round" stroke-linejoin="round" stroke-width=".27493">
    <path d="m37.61 269.16c-0.35616 0.12022-0.50919 0.43505-0.49298 0.71312 0.76922 0.18111 1.3602 0.13819 1.408 1.0782 0.5595-0.589 0.59266-1.5156-0.91499-1.7913z"/>
    <path d="m20.21 268.13c0.08752-0.16549 0.17105-0.45667-0.13006-0.62702-0.9335-0.17788-1.4671 0.32235-1.5863 1.0424 0.60124-0.25192 1.0512-0.51041 1.7163-0.41536z"/>
    <path d="m20.219 265.99c0.09979-0.1584 0.20508-0.44244-0.08228-0.63505-0.91738-0.24793-1.4873 0.21052-1.6605 0.91949 0.61857-0.20575 1.0868-0.42948 1.7428-0.28444z"/>
    <path d="m22.59 263.04c0.1278-0.13679 0.28466-0.39593 0.03868-0.63919-0.85434-0.41615-1.5004-0.0732-1.8039 0.59054 0.64621-0.0857 1.1482-0.21727 1.7652 0.0487z"/>
   </g>
   <g fill-rule="evenodd">
    <path d="m24.032 234.66c1.8388-0.65523 3.4085-1.0218 5.3976-1.0759-1.527-0.65882-3.9065-1.2943-6.6981 0.0279 1.06-0.17131 2.6522-0.32536 3.287-0.14571-0.57516 0.14474-1.7498 0.78626-1.9865 1.1937z"/>
    <path d="m23.35 231.49c1.5662-1.1651 2.9596-1.9755 4.8457-2.6098-1.653-0.18264-4.1143-0.0932-6.3961 1.9887 0.96334-0.4743 2.4405-1.088 3.1002-1.1022-0.50754 0.30686-1.4427 1.2643-1.5497 1.7233z"/>
    <path d="m29.063 232.2c1.9465-0.14615 3.5574-0.085 5.4901 0.38837-1.2987-1.0388-3.4258-2.2804-6.4675-1.7427 1.0676 0.11483 2.6439 0.38689 3.2087 0.72788-0.59295-0.0124-1.8953 0.29604-2.2313 0.62647z"/>
    <path d="m36.049 231.33c1.9132 0.38741 3.447 0.88323 5.1788 1.8632-0.96812-1.3522-2.6786-3.1242-5.7521-3.4319 0.99642 0.40015 2.4398 1.0896 2.8909 1.5711-0.56737-0.17276-1.9046-0.22926-2.3176-2e-3z"/>
    <path d="m37.205 234.84c1.7066 0.94753 3.0189 1.8837 4.3735 3.3413-0.51419-1.5816-1.6091-3.7877-4.4459-5.0099 0.82888 0.6826 1.9964 1.776 2.2809 2.3714-0.48863-0.33617-1.7462-0.79416-2.2085-0.70273z"/>
    <path d="m42.125 234.4c1.4233 1.3359 2.4669 2.5644 3.4243 4.3088-0.11206-1.6593-0.6346-4.0661-3.0866-5.9446 0.63692 0.86448 1.5017 2.2101 1.6322 2.8569-0.39166-0.44539-1.4992-1.1969-1.9698-1.2212z"/>
    <path d="m30.251 229.1c1.917-0.36796 3.5242-0.4916 5.4984-0.2425-1.4091-0.88339-3.6642-1.8733-6.6244-0.99109 1.0737-8e-3 2.6708 0.0818 3.271 0.35587-0.59047 0.0556-1.849 0.511-2.145 0.87772z"/>
   </g>
   <g fill-rule="evenodd" stroke="#000" stroke-linecap="round" stroke-linejoin="round" stroke-width=".27493">
    <path d="m50.178 249.85c3.7253 5.4168 7.3993 9.529 8.9115 14.696-4.3637-4.1592-7.4807-7.0756-9.4957-12.578" fill="#a06823"/>
    <path d="m49.969 249.59c2.7484 5.972 6.2989 12.404 6.9091 17.753-3.5916-4.8416-7.0825-9.691-8.1311-15.456" fill="#a06823"/>
    <path d="m42.764 250.76c2.3637 0.79018 5.7335 2.8516 7.5362 4.5118-0.69059-3.4459-0.9763-6.3542-3.4796-8.411" fill="#c45a0b"/>
    <path d="m43.754 247.57c2.5573 1.1003 5.781 3.0802 7.7693 5.063-0.86942-3.0465-1.9923-6.2566-3.9337-7.6406" fill="#c45a0b"/>
   </g>
   <g fill="#a06823" fill-rule="evenodd" stroke="#000" stroke-linecap="round" stroke-linejoin="round" stroke-width=".27493">
    <path d="m42.884 247.19c1.3791 1.2365 1.6572 5.9351 1.8258 7.1816-2.9855-0.35646-4.8059-2.3535-5.7596-4.9575"/>
    <path d="m45.508 245.01c1.3791 1.2365 2.1186 4.8808 2.2871 6.1272-2.9855-0.35646-5.2673-1.2991-6.2209-3.9031"/>
    <path d="m47.163 241.32c1.5851 0.95832 3.8774 5.5735 4.2749 6.7669-2.9997 0.20528-6.3047-1.4686-7.7262-3.8497"/>
    <path d="m48.91 237.64c1.7336 2.7381 2.9582 5.7788 3.0649 7.0056-2.9843 0.36701-4.9001-1.6414-6.4481-3.9422"/>
    <path d="m30.08 251.95c-1.8148 4.7639 0.5629 7.6644 5.5125 9.3198 2.4145-1.1178 2.5485-2.6299 2.684-6.371 1.6126-2.9448 2.7905-5.0505 2.9697-7.1516 1.3028-15.28-20.407-12.92-20.894-5.0453-0.29316 4.738 6.2228 8.3403 9.7279 9.2482z"/>
   </g>
   <path d="m21.564 244.36c1.2926 4.0894 8.2739 7.9541 12.323 5.7644-3.2828-1.2474-4.8076-1.6176-6.3312-3.8496 12.54 1.4372 10.993-11.338-1.0947-8.0724-3.9137 1.1853-5.5254 3.5454-4.8975 6.1576z" fill="#c4aa97" fill-rule="evenodd"/>
   <g fill="#7c441b" stroke="#000" stroke-width=".27493">
    <path d="m1.4466 271.25q0.4753 1.0194 0.34861 1.6834-0.12238 0.66-0.83892 1.3148-1.0921 0.99803-2.1489 0.95491-1.0568-0.0431-2.1492-1.158l-2.0083-2.0494q-0.12321-0.12574 0.010605-0.24802l0.25899-0.23669q0.10791-0.0986 0.2706-0.0328 0.35064 0.13238 0.5751-0.0727l5.21-4.7613q0.10791-0.0986 0.11391-0.16764 0.00599-0.069-0.076268-0.31163-0.043289-0.11932-0.012235-0.17948 0.035161-0.056 0.22077-0.22559 0.16403-0.1499 0.26121-0.15927 0.10129-5e-3 0.20807 0.10379l2.2506 2.2967q0.81316 0.82983 0.81252 1.6725-6.372e-4 0.84267-0.67401 1.458-0.56114 0.51282-1.286 0.50791-0.72072-7.2e-4 -1.3472-0.3895zm1.4319-3.39-2.2662 2.071 0.21766 0.22213q0.20534 0.20955 0.44552 0.2125 0.24428 7e-3 0.54991-0.24039 0.31406-0.24729 0.75866-0.6536 0.62158-0.56804 0.68788-0.85107 0.074724-0.28278-0.1758-0.53844zm-2.7582 2.5207-3.2244 2.9467q0.37783 0.38558 0.61306 0.41688 0.23933 0.0355 0.57929-0.23546 0.34406-0.26676 1.1038-0.96104 0.15539-0.14201 0.69127-0.65557 0.54019-0.5175 0.61546-0.65778 0.075267-0.14028 0.045556-0.29585-0.025604-0.15137-0.20631-0.33578z"/>
    <path d="m5.8297 270.1 2.0811 1.4864q0.10574 0.0755 0.099374 0.14232-0.00284 0.0622-0.17532 0.2886-0.17248 0.22642-0.36818 0.2008-0.14798-0.0201-0.23219 0.0125-0.079403 0.036-0.20964 0.20701l-3.9424 5.1752q-0.16192 0.21256-0.13904 0.43581 0.026402 0.21863 0.21865 0.35594 0.17783 0.12701 0.41543 0.0684 0.2376-0.0586 0.37488-0.23882l3.9424-5.1752q0.10208-0.134 0.11196-0.20542 0.018209-0.0726-0.027688-0.22669-0.071891-0.23685 0.11819-0.48637 0.14784-0.19407 0.21926-0.20014 0.079742-7e-3 0.16625 0.0545l1.0381 0.74148q0.17302 0.12358 0.046303 0.28992l-0.16896 0.2218q-0.11264 0.14786-0.16354 0.17572-0.047385 0.0232-0.16334-0.01-0.28221-0.0874-0.45469 0.139l-3.8403 5.0412q-0.5456 0.71621-1.2937 0.83117-0.74455 0.11035-1.5087-0.43546-0.8555-0.61103-0.96937-1.3773-0.10906-0.76284 0.52806-1.5992l3.7101-4.8702q0.14784-0.19407 0.00677-0.43753-0.070537-0.12173-0.066408-0.17586 0.012455-0.0553 0.11101-0.1847 0.20416-0.268 0.2906-0.31328 0.086443-0.0453 0.24505 0.068z"/>
    <path d="m10.434 278.54-1.6661 3.0872q-0.129 0.23904 0.13091 0.48204 0.13133 0.11896 0.13814 0.1938 0.014838 0.0725-0.083974 0.25555-0.15371 0.28481-0.22873 0.31138-0.069734 0.0293-0.24416-0.0598l-2.4156-1.2334q-0.20086-0.10256-0.22312-0.21124-0.014227-0.11107 0.11752-0.35519 0.087833-0.16275 0.13622-0.18995 0.056418-0.0296 0.23207-0.0177 0.23949 0.0185 0.31725-0.0132 0.080509-0.0367 0.14364-0.15372l3.3157-6.1439q0.07136-0.13223 0.05165-0.23313-0.01443-0.0982-0.15826-0.26894-0.10195-0.12342 0.00235-0.31669 0.01098-0.0203 0.12606-0.22109 0.147-0.19741 0.369-0.0841l3.2983 1.6842q0.148 0.0756 0.18144 0.15103 0.03344 0.0755-0.03091 0.26967-0.01118 0.0332-0.0308 0.0946l-0.37148 1.2505q-0.0365 0.1176-0.07767 0.19389-0.08783 0.16275-0.34155 0.0332-0.33829-0.17273-0.35699-0.33798-0.0187-0.16525 0.06234-0.74018 0.04819-0.35167-0.0079-0.51006-0.05082-0.1557-0.27811-0.27176-0.06343-0.0324-0.24081-0.10349l-1.5673 2.9041 0.26957 0.13765q0.21143 0.10796 0.34012 0.0569 0.13672-0.0534 0.29724-0.26342 0.18756-0.2351 0.26827-0.28471 0.08346-0.0547 0.39003 0.10184 0.21143 0.10796 0.23176 0.17024 0.02561 0.065-0.03752 0.18196l-0.99362 1.8411q-0.06313 0.11698-0.12463 0.13099-0.0615 0.014-0.28879-0.10205-0.27486-0.14034-0.3022-0.26459-0.02205-0.12155 0.1221-0.47612 0.14162-0.36235-0.20196-0.53778z"/>
    <path d="m15.78 280.72-1.0679 3.3301q-0.08269 0.25785 0.21747 0.45236 0.15096 0.0945 0.17144 0.16708 0.02793 0.0688-0.0354 0.26633-0.09852 0.30723-0.16733 0.34638-0.06312 0.0409-0.25091-0.0167l-2.6007-0.79773q-0.21625-0.0663-0.25815-0.16958-0.03445-0.10698 0.05-0.37031 0.0563-0.17556 0.09882-0.21072 0.04998-0.0389 0.22474-0.0576 0.2387-0.0232 0.30927-0.0678 0.07233-0.0501 0.11279-0.17631l2.1252-6.6273q0.04574-0.14264 0.0078-0.23865-0.03228-0.0943-0.20506-0.23765-0.12292-0.10399-0.05606-0.31247 7e-3 -0.0219 0.0831-0.23964 0.10803-0.21995 0.34704-0.14664l3.551 1.0893q0.15934 0.0489 0.2061 0.11745 0.04676 0.0686 0.01933 0.27107-0.0049 0.0347-0.01286 0.0985l-0.13448 1.2965q-0.01419 0.12219-0.04057 0.20449-0.0563 0.17556-0.32945 0.0918-0.36421-0.11172-0.41303-0.27132-0.04883-0.1596-0.07518-0.74013-0.01747-0.35486-0.10178-0.50124-0.07863-0.14464-0.32333-0.2197-0.06829-0.0209-0.25567-0.0603l-1.0046 3.1326 0.29023 0.089q0.22763 0.0698 0.34466-3e-3 0.12448-0.0763 0.24348-0.31096 0.14094-0.26409 0.2111-0.32693 0.07192-0.0683 0.40198 0.0329 0.22763 0.0698 0.25908 0.12768 0.03714 0.0596-0.0033 0.18579l-0.63686 1.986q-0.04046 0.12618-0.0983 0.15062-0.05784 0.0244-0.30254-0.0506-0.29592-0.0908-0.34568-0.20848-0.04407-0.11595 0.03221-0.49026 0.07235-0.38154-0.29755-0.49501z"/>
    <path d="m25.365 280.14-0.25867-1.5028q-0.03356-0.21379-0.22804-0.41357-0.1297-0.12935-0.12853-0.24452l0.0041-0.40309q0.0018-0.17276 0.17441-0.16925l2.441 0.0496q0.11907 2e-3 0.14826 0.0606 0.03514 0.0583 0.03309 0.25986-0.0031 0.3052-0.03946 0.36782-0.03035 0.057-0.15007 0.1179-0.17955 0.0885-0.18048 0.18065-0.0012 0.12093 0.044 0.35799l0.6413 3.6992 0.74714-3.792q0.0066-0.0575 0.0072-0.12081 0.0027-0.26489-0.29955-0.40926-0.15409-0.0722-0.15678-0.39484 8.77e-4 -0.0864-0.0047-0.12105l5.18e-4 -0.0518q0.0014-0.13821 0.21574-0.13385l1.3694 0.0278q0.14289 3e-3 0.18404 0.0556 0.04121 0.0469 0.03957 0.20815-5.27e-4 0.0518-7e-3 0.10353l-0.02014 0.22422q-0.02516 0.13196-0.19292 0.23222-0.16776 0.10027-0.2179 0.34692l-1.512 7.572q-0.08791 0.44747-0.14237 0.53275-0.05446 0.0853-0.19735 0.0824l-1.0002-0.0203q-0.16075-3e-3 -0.19909-0.33234-0.0053-0.0635-0.01091-0.0981l-0.7149-4.0751-0.79209 4.1136q-0.04419 0.24677-0.09235 0.29763-0.04821 0.0566-0.15538 0.0544l-1.0419-0.0212q-0.17861-4e-3 -0.24987-0.60984-0.0108-0.10965-0.02212-0.16748l-1.3473-7.4804q-0.04523-0.23706-0.24655-0.35059-0.16583-0.0898-0.16413-0.25676l0.0045-0.4434q0.0013-0.13245 0.16805-0.12906l2.3577 0.0479q0.11907 2e-3 0.16606 0.0667 0.04705 0.0586 0.04482 0.27738-0.0025 0.24761-0.02102 0.31059-0.0185 0.063-0.11458 0.14167-0.12018 0.10699-0.12135 0.22216-0.0013 0.13244 0.03239 0.32896l0.71654 3.9139z"/>
    <path d="m33.268 277.57 0.7032 3.2266 0.39603-0.0763q0.16307-0.0314 0.224-0.11381 0.06093-0.0824 0.05244-0.31628-0.01755-0.41467 6e-3 -0.50163 0.02935-0.0881 0.12253-0.10603 0.46009-0.0886 0.52695-0.0603 0.07145 0.0215 0.12564 0.27019l0.4101 1.8817q0.03818 0.17518-0.0077 0.2429-0.04716 0.0621-0.35 0.12042-0.19801 0.0381-0.28268-0.0162-0.08007-0.0611-0.21556-0.37652-0.12934-0.28715-0.20818-0.34262-0.07302-0.0566-0.20114-0.0319l-0.45427 0.0875 0.84852 3.8934 0.30867-0.0595q0.28537-0.055 0.35695-0.22774 0.07617-0.17954 0.15362-0.96578 0.03129-0.32987 0.11517-0.44612 0.08389-0.11626 0.34597-0.16674 0.36108-0.0696 0.41034 0.15647 0.01478 0.0678 0.01981 0.20227l0.06407 1.3242q0.01811 0.36157-0.0066 0.44288-0.02016 0.0745-0.21818 0.11268l-3.8846 0.74828q-0.1456 0.0281-0.19992-0.0263-0.05555-0.06-0.12328-0.37075-0.0431-0.19778 0.14686-0.32858 0.29199-0.19167 0.24273-0.4177l-1.5357-7.0465q-0.02922-0.10624-0.30888-0.16424-0.19073-0.0398-0.24045-0.10088-0.0439-0.0622-0.10055-0.32214-0.04803-0.22038-0.02171-0.26667 0.02509-0.0519 0.19399-0.0845l3.7157-0.71574q0.13977-0.0269 0.21369 6e-3 0.07392 0.0329 0.14581 0.19565l0.61476 1.4007q0.04793 0.10853 0.05655 0.14808 0.03325 0.15257-0.2463 0.20642-0.31449 0.0606-0.4341 0.013-0.12084-0.0533-0.28142-0.31674-0.29138-0.47379-0.46843-0.64576-0.17123-0.1731-0.3343-0.14169z"/>
    <path d="m40.474 277 3.7353 4.4485q0.19008 0.22891 0.43494 0.23893 0.15962 8e-3 0.26202 0.23004 0.01219 0.0264 0.13 0.32378 0.04222 0.13365-0.16961 0.2233l-2.1618 0.91484q-0.11949 0.0506-0.17702 0.0244-0.05753-0.0262-0.1453-0.2163-0.01463-0.0317-0.11592-0.27924-0.02759-0.10196 0.06696-0.19248 0.14699-0.13165 0.0836-0.26897-0.01707-0.037-0.05231-0.0852l-1.9893-2.3401-0.0018 0.47426 0.99478 2.1548q0.12435 0.26936 0.4346 0.30853 0.13002 0.0144 0.22511 0.2204 0.11216 0.24295 0.10772 0.34584-0.0069 0.0976-0.17526 0.16887l-2.2758 0.96311q-0.12493 0.0529-0.19575 0.026-0.07327-0.0321-0.18055-0.26451-0.10728-0.23239-0.09608-0.30658 0.0087-0.0795 0.09545-0.17297 0.1644-0.16427 0.0693-0.37025l-2.9283-6.3431q-0.10972-0.23767-0.3589-0.27111-0.16693-0.024-0.21603-0.0601-0.05154-0.0413-0.12468-0.19976-0.1658-0.35915-0.16302-0.42345 3.36e-4 -0.0696 0.1307-0.12476l2.4768-1.0482q0.17381-0.0735 0.2372 0.0638 0.19749 0.42781 0.2129 0.50336 0.01296 0.0703-0.09169 0.20926-0.19976 0.24237-0.10467 0.44835l1.2508 2.7094-0.02282-3.1154q-0.0022-0.25792-0.0534-0.36883-0.0317-0.0687-0.20594-0.10856-0.18511-0.0353-0.2494-0.0902-0.05885-0.0572-0.18808-0.33709-0.09509-0.20598 0.06243-0.27264l1.4394-0.60913q0.12493-0.0529 0.17403-0.0168 0.0491 0.036 0.15394 0.26314 0.11216 0.24295 0.09852 0.31186-0.0082 0.0666-0.15875 0.2187-0.11684 0.11258-0.14023 0.16035-0.02339 0.0478-0.02895 0.1764z"/>
    <path d="m47.176 278.62-1.2252 0.80253 0.25692 0.47544q0.01014 0.0144 0.0206 0.0495 0.05877 0.16442 0.13648 0.27445 0.12163 0.17223 0.43643 0.14095 0.16644-0.0181 0.24315 0.0296 0.0767 0.0477 0.18482 0.20081 0.13852 0.19614 0.14442 0.25525 0.0074 0.0511-0.07589 0.10569l-1.2938 0.84746q-0.10782 0.0706-0.26323-0.14944-0.18582-0.26312-0.12916-0.53813 0.05699-0.25424-0.03675-0.43774l-3.0699-6.2247q-0.06672-0.14522-0.13429-0.2409-0.10474-0.14831-0.39656-0.12509-0.13856 7e-3 -0.27708-0.18936-0.18582-0.26312-0.20034-0.34457-0.01452-0.0815 0.11291-0.16492l1.8721-1.2263q0.17153-0.11235 0.35163 5.8e-4 0.1801 0.11293 0.62374 0.59902 0.17468 0.18646 0.34599 0.36812l4.5168 4.7312q0.32909 0.3442 0.70133 0.39426 0.10087 0.0109 0.14413 0.0315 0.03988 0.0159 0.15137 0.17374 0.17231 0.24399 0.17854 0.32387 0.0029 0.0751-0.10986 0.14892l-2.1809 1.4285q-0.09802 0.0642-0.2264-0.11759-0.16217-0.22964-0.17821-0.3031-0.01604-0.0735 0.04752-0.22704 0.0972-0.21761-0.01767-0.38026-0.11825-0.16744-0.65362-0.71239zm-3.6018-3.8822 2.0811 4.0735 1.0782-0.70622z"/>
   </g>
   <path d="m-6.8385 270.84a39.442 36.551 8.6733 0 0 54.735 10.698 39.442 36.551 8.6733 0 0 10.263-50.671 39.442 36.551 8.6733 0 0-54.735-10.698 39.442 36.551 8.6733 0 0-10.263 50.671z" fill="none"/>
   <g stroke-width=".091645">
    <text transform="rotate(6.7947)" x="80.218727" y="263.28372" font-family="sans-serif" font-size="1.4663px" letter-spacing="0px" word-spacing="-.00091645px" style="line-height:1.25" xml:space="preserve"><tspan x="80.218727" y="263.28372" stroke-width=".091645"/></text>
    <path d="m48.35 270.6-0.225 0.28369q-0.27544-0.16589-0.48642 1.7e-4 -0.16203 0.12753-0.15656 0.32549 0.0072 0.19664 0.17056 0.40424 0.12886 0.16372 0.25669 0.24626 0.1265 0.0808 0.24593 0.0798 0.11979-4e-3 0.22444-0.0864 0.23292-0.18333 0.08882-0.54006l0.34649-0.12238q0.21037 0.54512-0.2521 0.90911-0.16541 0.13019-0.37264 0.16209-0.20554 0.0306-0.42181-0.0671t-0.39694-0.3272q-0.16871-0.21436-0.21559-0.43714-0.0482-0.22447 0.02823-0.4295 0.07812-0.20636 0.27729-0.36312 0.41858-0.32945 0.8886-0.0379zm-1.3632-0.52339q0.26499-0.20857 0.57798-0.29364 0.31335-0.0881 0.6344-0.0483 0.32141 0.0368 0.60529 0.19602 0.28424 0.15623 0.4928 0.42122 0.27366 0.34769 0.33326 0.7846 0.05996 0.43388-0.10027 0.84154-0.16156 0.40596-0.51094 0.68095-0.35445 0.27898-0.78701 0.34062-0.43087 0.0603-0.83853-0.0999-0.4073-0.16325-0.68228-0.51263-0.27632-0.35107-0.33796-0.78363-0.06129-0.43558 0.10027-0.84154 0.16192-0.40899 0.51298-0.6853zm0.19927 0.25317q-0.28524 0.22451-0.41297 0.55191-0.12604 0.32607-0.07749 0.67601 0.04891 0.34691 0.27076 0.62878 0.22318 0.28356 0.54889 0.41261 0.32607 0.12604 0.67432 0.0788 0.34692-0.0489 0.63047-0.27209 0.28187-0.22185 0.41261-0.5489 0.13074-0.32704 0.08316-0.67227-0.04722-0.34824-0.27173-0.63349-0.22052-0.28018-0.54925-0.40959t-0.67866-0.0809q-0.34825 0.0472-0.63011 0.26907z"/>
    <text transform="rotate(6.7947)" x="82.892952" y="264.60886" fill="#000000" font-family="Calibri" font-size="1.346px" font-weight="400" letter-spacing="0px" word-spacing="0px" style="line-height:125%" xml:space="preserve"><tspan x="82.892952" y="264.60886" stroke-width=".091645"><tspan dx="0" dy="0" fill="#000000" font-family="Calibri" font-size="1.346px" font-weight="400" stroke-width=".091645"> </tspan></tspan></text>
   </g>
  </g>
 </g>
</svg>
